<svg xmlns="http://www.w3.org/2000/svg" xmlns:xlink="http://www.w3.org/1999/xlink" version="1.1" x="0px" y="0px" viewBox="0 0 100 100" enable-background="new 0 0 100 100" xml:space="preserve"><g><path fill="white" d="M81.391,56.52c-0.178-0.327-0.157-0.727,0.053-1.034l9.948-14.55c0.045-0.097,0.09-0.192,0.136-0.29l2.38-8.393   c0.219-0.772-0.522-1.472-1.28-1.209l-6.009,2.08c-0.163,0.056-0.338,0.069-0.508,0.038l-1.918-0.36   c-0.197-0.037-0.378-0.132-0.519-0.274l-5.287-5.287c-0.044-0.054-0.087-0.107-0.13-0.161L68.241,11.671l0.171-0.128   c0.273-0.205,0.4-0.551,0.325-0.884l-0.724-3.206c-0.128-0.566-0.711-0.902-1.265-0.729l-1.226,0.383   c-0.149,0.046-0.306,0.057-0.459,0.032l-1.636-0.273c-0.289-0.048-0.584,0.033-0.806,0.223l-0.858,0.73   c-0.216,0.184-0.5,0.266-0.781,0.227l-8.263-1.16c-0.085-0.001-0.17-0.002-0.255-0.003l-2.106,0.251   c-0.59,0.07-0.962,0.635-0.844,1.217c0.168,0.823-0.595,1.519-1.391,1.291l-10.37-2.963c-0.509-0.145-0.77-0.709-0.551-1.191   l0.126-0.276c0.142-0.312,0.086-0.678-0.141-0.934L35.47,2.347c-0.24-0.27-0.607-0.388-0.959-0.309l-9.698,2.171   c-0.073,0.026-0.145,0.051-0.218,0.076l-5.354,2.608c-0.323,0.157-0.732,0.168-1.005-0.066c-0.465-0.399-1.184-0.202-1.383,0.375   l-0.317,0.92c-0.045,0.087-0.09,0.173-0.136,0.26l-3.441,4.732c-0.123,0.17-0.19,0.374-0.19,0.584v2.33   c0,0.19-0.054,0.376-0.157,0.536L5.295,27.979c-0.172,0.268-0.205,0.602-0.088,0.898l1.134,2.892   c0.05,0.127,0.073,0.263,0.068,0.399l-0.282,7.613c-0.013,0.345,0.154,0.672,0.442,0.863l4.809,3.206   c0.198,0.132,0.342,0.331,0.406,0.56l0.542,1.953c0.084,0.302,0.306,0.547,0.599,0.661l6.072,2.346   c0.183,0.071,0.382,0.086,0.573,0.043l7.967-1.77c0.069-0.024,0.138-0.047,0.207-0.071l4.809-2.263   c0.231-0.109,0.495-0.124,0.737-0.044l1.536,0.512c0.259,0.086,0.462,0.289,0.548,0.548l0.107,0.322   c0.129,0.386,0.509,0.631,0.914,0.587l3.189-0.342c0.289-0.031,0.578,0.067,0.789,0.267l1.415,1.342   c0.235,0.223,0.347,0.547,0.299,0.868l-0.72,4.798c-0.054,0.357,0.091,0.715,0.377,0.935l3.352,2.579   c0.14,0.107,0.248,0.25,0.314,0.413l3.502,8.608c0.075,0.185,0.093,0.389,0.051,0.584l-1.87,8.633   c-0.051,0.235-0.015,0.48,0.101,0.691l9.458,17.114c0.081,0.147,0.124,0.312,0.124,0.48v1.075c0,0.241,0.087,0.473,0.246,0.654   l1.493,1.707c0.261,0.298,0.675,0.413,1.052,0.291l4.033-1.301c0.102-0.016,0.203-0.032,0.305-0.048h2.486   c0.29,0,0.565-0.127,0.754-0.347l7.831-9.136c0.154-0.18,0.239-0.409,0.239-0.646v-3.189c0-0.383,0.22-0.732,0.566-0.897l2-0.952   c0.406-0.193,0.631-0.635,0.55-1.076l-0.855-4.642c-0.058-0.312,0.038-0.634,0.257-0.864l5.306-5.586   c0.151-0.159,0.246-0.364,0.268-0.583l0.709-6.95c0.02-0.199-0.02-0.399-0.115-0.575L81.391,56.52z"/><path fill="white" d="M93.63,63.076c-0.324-0.718-1.315-0.791-1.74-0.128l-1.674,2.603c-0.084,0.13-0.197,0.239-0.33,0.318l-2.862,1.691   c-0.221,0.131-0.383,0.342-0.452,0.589l-0.553,1.993c-0.073,0.262-0.035,0.543,0.105,0.777l0.919,1.532   c0.161,0.268,0.186,0.597,0.068,0.887l-1.081,2.642c-0.081,0.199-0.096,0.419-0.042,0.627l0.739,2.832   c0.068,0.263,0.241,0.486,0.479,0.617l0.674,0.375c0.224,0.124,0.487,0.157,0.735,0.092l1.973-0.519   c0.359-0.095,0.636-0.382,0.717-0.745l2.603-11.714c0.036-0.161,0.117-0.308,0.233-0.425l0.421-0.421   c0.292-0.292,0.373-0.734,0.203-1.111L93.63,63.076z"/></g></svg>