<svg xmlns="http://www.w3.org/2000/svg" xml:space="preserve" width="200" height="200" style="shape-rendering:geometricPrecision;text-rendering:geometricPrecision;image-rendering:optimizeQuality;fill-rule:evenodd;clip-rule:evenodd" viewBox="0 0 6.827 6.827"><defs><style>.fil2{fill:#9dd5c0}.fil0{fill:#f19a7b}.fil1{fill:#212121;fill-rule:nonzero}</style></defs><g id="Layer_x0020_1"><g id="_512204560"><path id="_512205664" class="fil0" d="M3.68 5.097zm.132-.109a.08.08 0 0 1 .004-.003l-.004.003zm-.16.128zm-.012-.021zm.124-.163a.08.08 0 0 1-.005.006l.005-.006zm.59-.763a.08.08 0 0 1-.006.006l.005-.006zm-.823.804zM5.23 3.529zm-.67.18a1.82 1.82 0 0 0-.232.232l-.06.078-.099.127-.497.644-.102.132-.027.035-.012.016a.28.28 0 0 0-.06.128.237.237 0 0 0 .012.124.08.08 0 0 0 .05.048.237.237 0 0 0 .133.007.28.28 0 0 0 .12-.063l.013-.011.035-.029.128-.106.627-.518.125-.102.068-.057a1.867 1.867 0 0 0 .365-.45c.076-.141.118-.29.083-.415a.08.08 0 0 0-.058-.056c-.125-.031-.271.016-.41.096-.07.04-.139.09-.202.14zm.073.148zm.222.233zm-.3.284a.083.083 0 0 1 .004-.003l-.003.003z"/><path id="_512205928" class="fil0" d="m3.924 5.387-.09-.21-.035.029.127.2c0-.007 0-.013-.002-.019z"/><path id="_512204872" class="fil0" d="m3.338 4.836.205.121.027-.035-.213-.084a.06.06 0 0 0-.02-.002z"/><path id="_512204968" class="fil0" d="m3.669 3.666.599.353.06-.078c.028-.036.062-.074.1-.112l-.569-.223a.16.16 0 0 0-.09 0 .318.318 0 0 0-.1.06z"/><path id="_512204752" class="fil0" d="m4.782 4.394-.068.057.372.586a.318.318 0 0 0 .055-.102.16.16 0 0 0-.002-.09l-.242-.561c-.038.042-.077.08-.115.11z"/></g><path class="fil1" d="M1.397 3.595a.053.053 0 0 0-.075-.075l-.007.006-.006.006-.006.007-.006.006-.007.007-.006.006-.006.007-.006.007-.006.006-.006.007-.006.007-.005.007-.006.006-.006.007-.006.007-.005.007-.006.007-.005.007-.006.007-.005.007-.006.007-.005.007-.005.007-.005.007-.005.006a.053.053 0 0 0 .012.075.053.053 0 0 0-.073.018l-.002.002-.005.008-.004.007-.005.008-.004.007-.004.008-.004.007-.005.008-.004.008-.004.007-.004.008-.004.007-.004.008-.004.008-.003.008-.004.007-.004.008-.004.008-.003.008-.004.007-.003.008-.004.008-.003.008-.004.008-.003.008-.003.008-.001.002a.053.053 0 0 0 .03.07.053.053 0 0 0-.068.034l-.002.006-.002.008-.003.008-.002.008-.003.008-.002.008-.002.009-.002.008-.003.008-.002.008-.002.008-.002.009-.002.008-.002.008-.002.008-.001.009-.002.008-.002.008-.002.009-.001.008-.002.008-.001.008-.002.009-.001.008-.002.008v.009l-.001.004a.053.053 0 0 0 .044.06.053.053 0 0 0-.057.05v.012l-.001.008v.008l-.001.009v.017l-.001.008V4.58l.001.008v.008l.001.009v.008l.001.009.001.007a.053.053 0 0 0 .058.05.053.053 0 0 0-.044.061v.007l.002.009.002.008.001.008.002.009.001.008.002.008.002.008.002.009.001.008.002.008.002.009.002.008.002.008.002.008.002.008.003.009.002.008.002.008.002.008.003.008.002.008.003.009.002.008.003.008.002.008.001.002c.01.03.041.043.068.034a.053.053 0 0 0-.03.07l.003.006.004.008.003.007.004.008.003.008.004.008.003.008.004.007.004.008.004.008.003.008.004.007.004.008.004.008.004.007.004.008.004.007.005.008.004.008.004.007.004.008.005.007.004.008.005.007.004.007.004.007a.053.053 0 0 0 .075.017.053.053 0 0 0-.012.075l.002.003.005.007.005.007.006.007.005.007.006.007.005.007.006.007.005.006.006.007.006.007.006.007.005.007.006.006.006.007.006.007.006.006.006.007.006.006.007.007.006.007.006.006.006.006.007.007.006.006.003.003c.022.022.056.02.076-.001a.053.053 0 0 0 .006.076h.001l.007.006.007.006.007.005.007.006.007.005.007.006.007.005.007.006.007.005.007.005.007.005.007.005.007.005.008.005.007.005.007.005.007.005.008.005.007.005.007.005.007.004.008.005.007.004.008.005.007.004.001.001a.053.053 0 0 0 .073-.018.053.053 0 0 0 .024.071l.009.004.007.004.008.003.008.004.008.003.007.004.008.003.008.004.008.003.008.004.008.003.008.003.008.003.008.003.008.003.008.003.008.003.008.003.008.003.008.003.008.003.008.003.008.002.008.003.008.002.007.003c.031.01.06-.01.067-.036a.053.053 0 0 0 .04.064l.009.002.008.002.008.002.009.001.008.002.008.001.009.002.008.001.008.002.009.001.008.002h.008l.009.002.008.001.008.001.009.001.008.001.009.001.008.001.008.001.009.001h.008l.009.002h.016l.009.001h.002a.053.053 0 0 0 .057-.05c0 .029.023.054.054.053h.038l.009-.001h.008l.009-.001h.008l.009-.001h.008l.008-.001.009-.001.008-.001h.009l.008-.002h.008l.009-.002h.008l.008-.002h.009l.008-.002.009-.001.008-.001.008-.002.009-.001.005-.001a.053.053 0 0 0 .044-.062c.002.011.009.022.02.03.013.01.029.013.044.009h.002l.009-.003.008-.002.008-.002.008-.002.008-.003.009-.002.008-.003.008-.002.008-.003.008-.002.008-.003.008-.002.008-.003.008-.003.008-.003.008-.003.008-.003.008-.003.008-.003.008-.003.008-.003.008-.003.008-.003.008-.003.008-.004.006-.002a.053.053 0 0 0 .028-.071.053.053 0 0 0 .072.023l.002-.002.008-.004.008-.004.007-.004.008-.004.007-.004.008-.005.007-.004.008-.005.007-.004.008-.005.007-.004.007-.005.008-.004.007-.005.007-.005.008-.005.007-.005.007-.005.007-.005.008-.005.007-.005.007-.005.007-.005.007-.005.007-.005.001-.001a.053.053 0 0 0 .011-.075c.008.01.02.016.034.018a.053.053 0 0 0 .04-.013l.003-.003.007-.006.007-.006.006-.006.007-.006.006-.006.007-.006.006-.006.007-.007.006-.006a.053.053 0 0 0-.075-.076l-.006.006-.006.006-.006.006-.006.006-.006.005-.006.006-.006.006-.007.005-.006.006-.002.001a.053.053 0 0 0-.007.073.053.053 0 0 0-.072-.007h-.001l-.007.005-.006.005-.007.005-.006.005-.007.004-.006.005-.007.004-.007.005-.007.004-.006.005-.007.004-.007.005-.007.004-.006.004-.007.005-.007.004-.007.004-.007.004-.007.004-.007.004-.007.004-.007.004-.007.004-.007.003-.007.004-.001.001a.053.053 0 0 0-.024.069.053.053 0 0 0-.069-.025l-.006.003-.007.003-.007.003-.008.003-.007.003-.007.003-.008.003-.007.003-.007.002-.008.003-.007.003-.008.002-.007.003-.008.002-.007.003-.008.002-.007.003-.008.002-.007.002-.008.003-.007.002-.008.002-.007.002-.008.002-.007.002-.008.002h-.001a.053.053 0 0 0-.04.062.053.053 0 0 0-.06-.04h-.006l-.008.002-.007.001-.008.001-.008.001-.008.002h-.007l-.008.002H2.47l-.008.001-.007.001-.008.001h-.008l-.008.002h-.015l-.008.001H2.4l-.008.001h-.007l-.008.001H2.36l-.008.001h-.02a.053.053 0 0 0-.052.05.053.053 0 0 0-.05-.052h-.01l-.008-.001h-.008l-.007-.001-.008-.001h-.008L2.174 5.8h-.007l-.008-.001-.008-.001-.008-.001-.007-.001-.008-.002H2.12l-.008-.002-.007-.001-.008-.001-.008-.002-.007-.001-.008-.001-.008-.002-.007-.001-.008-.002-.008-.002-.007-.001-.008-.002a.053.053 0 0 0-.063.037.053.053 0 0 0-.036-.063l-.007-.002-.008-.003-.007-.002L1.9 5.74l-.008-.002-.007-.003-.008-.002-.007-.003-.008-.003-.007-.002-.007-.003-.008-.003-.007-.003-.007-.003-.008-.003-.007-.003-.007-.003-.008-.003-.007-.003-.007-.003-.007-.004-.007-.003-.008-.003-.007-.004-.007-.003-.007-.004a.053.053 0 0 0-.07.02.053.053 0 0 0-.02-.069h-.001L1.64 5.62l-.007-.004-.007-.005-.007-.004-.006-.004-.007-.005-.007-.004-.007-.005-.006-.004-.007-.005-.007-.004-.006-.005-.007-.004-.006-.005-.007-.005-.007-.005-.006-.005-.007-.005-.006-.005-.006-.005-.007-.005-.006-.005-.007-.005-.006-.005-.006-.005a.053.053 0 0 0-.074.003.053.053 0 0 0-.003-.073l-.003-.003-.006-.005-.006-.006-.006-.006-.005-.006-.006-.006-.006-.006-.005-.007-.006-.006-.006-.006-.005-.006-.006-.006-.005-.006-.005-.007-.006-.006-.005-.006-.005-.006-.005-.007-.006-.006-.005-.007-.005-.006-.005-.006-.005-.007-.005-.006-.005-.007-.001-.002a.053.053 0 0 0-.072-.013.053.053 0 0 0 .014-.071l-.004-.007-.004-.007-.004-.007-.004-.007-.004-.007-.004-.007-.004-.007-.004-.007-.004-.007-.004-.007-.004-.007-.003-.007-.004-.007-.004-.007-.003-.007-.004-.007-.003-.007-.004-.008-.003-.007-.003-.007-.004-.007-.003-.007-.003-.008-.003-.007-.003-.007-.003-.006a.053.053 0 0 0-.066-.03.053.053 0 0 0 .03-.066V4.92l-.003-.008-.002-.007-.002-.008-.003-.007-.002-.008-.002-.007-.002-.008-.002-.007-.002-.008-.002-.008-.002-.007-.002-.008-.002-.007-.002-.008-.002-.008-.001-.007-.002-.008-.002-.008-.001-.007-.002-.008-.001-.008-.002-.007-.001-.008-.002-.008-.001-.007-.001-.007a.053.053 0 0 0-.058-.045.053.053 0 0 0 .045-.057v-.015l-.001-.008V4.59l-.001-.008v-.015l-.001-.008v-.023l-.001-.008v-.063l.001-.007v-.016l.001-.008v-.008l.001-.007v-.003a.053.053 0 0 0-.045-.057.053.053 0 0 0 .057-.045V4.31l.002-.008.001-.007.001-.008.002-.008.001-.007.002-.008.001-.008.002-.007.001-.008.002-.008.002-.007.001-.008.002-.008.002-.007.002-.008.002-.007.002-.008.002-.008.002-.007.002-.008.002-.007.002-.008.002-.007.003-.008.002-.007.002-.005a.053.053 0 0 0-.031-.066.053.053 0 0 0 .065-.03l.002-.003.003-.007L1.123 4l.003-.007.003-.007.003-.007.003-.008.004-.007.003-.007.003-.007.004-.007.003-.007.004-.007.003-.008.004-.007.004-.007.003-.007.004-.007.004-.007.004-.007.004-.007.004-.007.004-.007.004-.007.004-.006.004-.007.002-.003a.053.053 0 0 0-.015-.071.053.053 0 0 0 .071-.014l.005-.006.004-.007.005-.006.005-.007.005-.006.005-.007.005-.006.005-.006.006-.007.005-.006.005-.006.005-.007.006-.006.005-.006.005-.006.006-.007.005-.006.006-.006.006-.006.005-.006.006-.006.006-.006.005-.006.006-.006.006-.006zM3.52 1.322a.053.053 0 0 0 .075.075l.006-.006.006-.006.006-.005.006-.006.006-.006.006-.005.006-.006.006-.006.006-.005.002-.002a.053.053 0 0 0 .007-.072.053.053 0 0 0 .072.007h.002l.006-.006.007-.004.006-.005.007-.005.007-.005.006-.004.007-.005.006-.004.007-.005.007-.004.007-.005.006-.004.007-.004.007-.005.007-.004.007-.004.007-.004.006-.004.007-.004.007-.004.007-.004.007-.004.007-.004.007-.004.007-.004h.002a.053.053 0 0 0 .024-.069c.006.01.015.02.029.025a.053.053 0 0 0 .04 0L4 1.122l.008-.003.007-.004.007-.002.008-.003.007-.003.007-.003.008-.003.007-.003.008-.002.007-.003.007-.003.008-.002.007-.003.008-.002.007-.003.008-.002.007-.002.008-.003.007-.002.008-.002.007-.002.008-.002.007-.002.008-.002.008-.002h.001a.053.053 0 0 0 .04-.063c0 .002 0 .005.002.007.009.024.033.038.058.034l.006-.001.007-.001.008-.001.008-.002h.008l.007-.002h.008l.008-.002h.008l.007-.002h.008l.008-.001.008-.001h.007l.008-.002h.016l.007-.001h.008l.008-.001h.008l.008-.001h.035a.053.053 0 0 0 .053-.051c0 .027.02.05.05.053h.017l.008.001.008.001h.008l.008.002h.007l.008.001.008.001.008.001.007.001.008.001.008.001.008.001.007.002h.008l.008.002.007.001.008.002.008.001.007.002.008.001.008.002.007.001.008.002.008.002a.053.053 0 0 0 .062-.037.053.053 0 0 0 .036.063l.008.002.007.002.008.003.007.002.008.003.007.002.007.003.008.003.007.002.008.003.007.003.007.003.008.003.007.003.007.002.008.004.007.003.007.003.007.003.008.003.007.003.007.004.007.003.007.003.008.004.007.003a.053.053 0 0 0 .07-.02.053.053 0 0 0 .02.07l.008.004.007.004.006.004.007.005.007.004.007.004.007.005.006.004.007.005.007.004.006.005.007.004.006.005.007.005.007.005.006.004.007.005.006.005.007.005.006.005.006.005.007.005.006.006.007.005.006.005a.053.053 0 0 0 .074-.003.053.053 0 0 0 .003.073l.003.002.005.006.006.006.006.006.006.006.006.006.005.006.006.006.006.006.005.006.006.007.005.006.006.006.005.006.005.006.006.007.005.006.005.006.005.007.005.006.005.007.005.006.005.006.005.007.005.006.002.003a.053.053 0 1 0 .086-.063l-.002-.003-.005-.007-.006-.007-.005-.007-.006-.007-.005-.007-.006-.007-.005-.007-.006-.007-.005-.007-.006-.006-.006-.007-.006-.007-.006-.007-.006-.006-.006-.007-.006-.007-.006-.006-.006-.007-.006-.006-.006-.007-.006-.006-.007-.007-.006-.006-.007-.007-.003-.003a.053.053 0 0 0-.076.002.053.053 0 0 0-.006-.076l-.008-.007-.006-.005-.007-.006-.007-.005-.007-.006-.007-.005-.007-.006-.007-.005-.007-.005-.007-.005-.007-.006-.008-.005-.007-.005-.007-.005-.007-.005-.007-.005-.008-.005-.007-.004-.007-.005-.007-.005-.008-.005-.007-.004-.008-.005-.007-.004-.007-.005h-.002a.053.053 0 0 0-.073.018.053.053 0 0 0-.024-.072l-.008-.003-.008-.004-.007-.004-.008-.003-.008-.004-.008-.003-.008-.004-.007-.003-.008-.004-.008-.003-.008-.003-.008-.003-.008-.004-.008-.003-.008-.003-.008-.003L5.001 1 4.993.996 4.985.993 4.977.991 4.97.988 4.961.985 4.953.982 4.945.98 4.937.977 4.929.975a.053.053 0 0 0-.067.035.053.053 0 0 0-.04-.064L4.814.945 4.805.943 4.797.94 4.79.94 4.78.938 4.772.936 4.764.935 4.756.933 4.747.932 4.74.93h-.008L4.722.927 4.714.927 4.706.925h-.009L4.69.922H4.68L4.672.92h-.008L4.655.918h-.008L4.639.918H4.63L4.622.915H4.603a.053.053 0 0 0-.057.05.053.053 0 0 0-.054-.054H4.47l-.008.001h-.017l-.009.001h-.008L4.42.916H4.41l-.008.001-.009.001h-.008L4.377.92H4.37L4.361.92l-.009.001-.008.001-.008.001-.009.001-.008.001-.009.002h-.008L4.294.93 4.285.93l-.008.002h-.005a.053.053 0 0 0-.044.063.053.053 0 0 0-.065-.04l-.002.001-.008.002-.008.003-.008.002-.009.002-.008.002-.008.003-.008.002-.008.003-.008.002L4.08.98l-.008.002-.009.003-.008.003-.008.003-.008.002-.008.003L4.023 1l-.008.003-.008.003L4 1.008l-.008.003-.008.004-.007.003-.008.003-.008.003-.006.003a.053.053 0 0 0-.028.07.053.053 0 0 0-.072-.023l-.003.002-.007.004-.008.004-.008.005-.007.004-.008.004-.007.004-.008.005-.007.004-.008.005-.007.004-.007.005-.008.004-.007.005-.007.005-.008.005-.007.004-.007.005-.008.005-.007.005-.007.005-.007.005-.007.005-.007.006-.007.005-.007.005-.002.001a.053.053 0 0 0-.01.075.053.053 0 0 0-.075-.004l-.003.001-.006.006-.007.006-.007.006-.006.006-.007.007-.006.006-.007.006-.006.006-.006.007zm1.615-.265-.047.095m.615.42a.053.053 0 0 0-.09.055l.004.007.004.007.004.007.004.007.004.007.004.007.004.006.004.007.004.007.003.007.004.007.004.008.004.007.003.007.004.007.003.007.004.007.003.007.004.007.003.008.003.007.004.007.003.007.003.007.003.008.002.005a.053.053 0 0 0 .067.03.053.053 0 0 0-.03.066v.002l.002.007.003.008.002.007.002.008.003.007.002.008.002.008.002.007.002.008.002.007.002.008.002.007.002.008.002.008.001.007.002.008.002.008.001.007.002.008.002.008.001.007.002.008.001.008.001.007.002.008v.007c.006.03.033.047.058.045a.053.053 0 0 0-.045.057v.007l.001.008v.008l.001.008v.007l.001.008v.016l.001.007V2.377l-.001.008v.007l-.001.008v.01c-.003.03.019.053.044.057a.053.053 0 0 0-.056.045v.005l-.002.007-.001.008-.002.008-.001.007-.001.008-.002.008-.001.007-.002.008-.002.008-.001.007-.002.008-.002.008-.001.007-.002.008-.002.007-.002.008-.002.008-.002.007-.002.008-.002.007-.002.008-.002.007-.003.008-.002.007-.002.008-.002.005a.053.053 0 0 0 .031.066.053.053 0 0 0-.066.03v.003l-.004.007-.003.007-.003.007-.003.008-.003.007-.004.007-.003.007-.003.008-.004.007-.003.007-.004.007-.003.007-.004.007-.003.007-.004.007-.004.007-.004.007-.003.007-.004.007-.004.007-.004.007-.004.007-.004.007-.004.007-.004.007-.002.003a.053.053 0 0 0 .015.071.053.053 0 0 0-.071.014l-.005.006-.005.006-.005.007-.005.006-.005.007-.005.006-.005.007-.005.006-.005.006-.005.007-.005.006-.006.006-.005.007-.005.006-.006.006-.005.006-.006.006-.005.007-.006.006-.006.006-.005.006-.006.006-.006.006-.006.006-.006.006a.053.053 0 0 0 .076.075l.006-.006.007-.007.006-.006.006-.007.006-.006.006-.007.006-.006.006-.007.006-.007.006-.006.006-.007.006-.007.006-.007.006-.006.005-.007.006-.007.005-.007.006-.007.005-.007.006-.007.005-.007.006-.007.005-.007.005-.007.005-.006a.053.053 0 0 0-.012-.075c.01.007.024.01.04.007a.053.053 0 0 0 .033-.025l.002-.003.004-.007.005-.008.004-.007.005-.008.004-.007.004-.008.004-.007.004-.008.004-.008.004-.007.004-.008.004-.007.004-.008.004-.008.004-.008.004-.007.003-.008.004-.008.003-.008.004-.008.003-.007.004-.008.003-.008.004-.008.003-.008V2.85a.053.053 0 0 0-.029-.07.053.053 0 0 0 .068-.035l.001-.005.003-.008.002-.008.003-.008.002-.009.003-.008.002-.008.002-.008.002-.008.002-.009.002-.008.002-.008.002-.008.002-.008.002-.009.002-.008.002-.008.002-.009.001-.008.002-.008.001-.008.002-.009.001-.008.002-.008.001-.009.002-.008v-.004a.053.053 0 0 0-.044-.061.053.053 0 0 0 .057-.05V2.4l.001-.009v-.008l.001-.009v-.016l.001-.009V2.255l-.001-.008v-.008l-.001-.009v-.008l-.001-.009v-.008l-.001-.008a.053.053 0 0 0-.058-.049.053.053 0 0 0 .044-.061l-.001-.008-.002-.008-.001-.008-.002-.009-.001-.008-.002-.008-.001-.009-.002-.008-.002-.008-.002-.008-.002-.009-.002-.008-.002-.008-.002-.008-.002-.009-.002-.008-.002-.008-.002-.008-.002-.008-.003-.008-.002-.009-.003-.008-.002-.008-.003-.008-.002-.008-.003-.008v-.002a.053.053 0 0 0-.068-.034.053.053 0 0 0 .029-.07l-.003-.006-.003-.008-.004-.008-.003-.008-.004-.007-.003-.008-.004-.008-.003-.008-.004-.007-.004-.008-.004-.008-.004-.008-.004-.007-.004-.008-.004-.008-.004-.007-.004-.008-.004-.007-.004-.008-.004-.007-.005-.008-.004-.007-.005-.008-.004-.007-.005-.008-.004-.007z"/><path class="fil1" d="M3.727 1.394a.053.053 0 0 1 0 .107H3.48a.053.053 0 0 1-.053-.053v-.246a.053.053 0 0 1 .106 0v.192h.193zM3.108 5.447a.053.053 0 0 1 0-.106h.246c.03 0 .053.024.053.053v.246a.053.053 0 0 1-.106 0v-.193h-.193z"/><path class="fil2" d="M3.167 1.75zm-.132.108a.08.08 0 0 1-.004.004l.004-.004zm.16-.127zm.012.02zm-.124.164a.08.08 0 0 1 .006-.007l-.006.007zm-.589.762a.08.08 0 0 1 .005-.006l-.005.006zm.823-.803zM1.618 3.318zm.67-.181a1.82 1.82 0 0 0 .232-.232l.06-.077.098-.128.498-.644.101-.131.028-.036.012-.015a.28.28 0 0 0 .059-.128.237.237 0 0 0-.012-.124.08.08 0 0 0-.049-.049.237.237 0 0 0-.133-.006.28.28 0 0 0-.12.062l-.014.012-.034.028-.129.106-.627.518-.124.103-.068.056a1.867 1.867 0 0 0-.365.45c-.076.142-.119.29-.083.416a.08.08 0 0 0 .057.055c.126.032.272-.015.41-.095.07-.04.14-.09.202-.141zm-.073-.147zm-.222-.234zm.299-.284a.083.083 0 0 1-.004.003l.004-.003z"/><path class="fil1" d="M2.52 2.792a.08.08 0 0 1 .08-.138l.752.443a.08.08 0 0 1 .014.128.603.603 0 0 1-.24.167.309.309 0 0 1-.193-.002l-.69-.27a.08.08 0 0 1 .058-.15l.687.27a.16.16 0 0 0 .09 0 .318.318 0 0 0 .1-.06l-.659-.388zM2.307 2.37a.08.08 0 0 1-.135.085l-.41-.646a.318.318 0 0 0-.056.103.16.16 0 0 0 .003.09L2 2.679a.08.08 0 0 1-.146.063l-.293-.68a.309.309 0 0 1-.008-.193.602.602 0 0 1 .176-.26.08.08 0 0 1 .11.024l.468.737zM3.24 1.851a.08.08 0 0 1 .082-.137l.374.22a.08.08 0 0 1 .014.127.36.36 0 0 1-.144.1.2.2 0 0 1-.13-.002l-.316-.124a.08.08 0 0 1 .058-.15l.313.124a.06.06 0 0 0 .019.001l-.27-.159zM3.223 1.618a.08.08 0 0 1-.135.086l-.167-.263c0 .006 0 .012.002.018l.133.308a.08.08 0 0 1-.147.063l-.134-.311a.201.201 0 0 1-.006-.13.36.36 0 0 1 .112-.162.08.08 0 0 1 .11.025l.232.366z"/><path class="fil1" d="M3.364 1.622a.238.238 0 0 1 .01.131.28.28 0 0 1-.057.12L2.52 2.906c-.08.105-.253.268-.435.373-.138.08-.284.127-.41.095a.08.08 0 0 1-.057-.055c-.036-.126.007-.274.083-.415.1-.187.262-.366.365-.451l.996-.822a.28.28 0 0 1 .12-.063.238.238 0 0 1 .133.006.08.08 0 0 1 .05.049zm-.146.1a.12.12 0 0 0-.051.028l-.002.001-.997.824a1.522 1.522 0 0 0-.326.403.537.537 0 0 0-.077.246.54.54 0 0 0 .24-.084c.163-.094.317-.24.389-.333l.797-1.03.001-.003a.12.12 0 0 0 .026-.052z"/><path class="fil2" d="m2.923 1.46.09.209.035-.028-.127-.2c0 .006 0 .012.002.018zM3.51 2.01l-.205-.12-.028.035.214.084a.06.06 0 0 0 .019.001zM3.179 3.18l-.6-.352-.059.077a1.197 1.197 0 0 1-.1.112l.568.223a.16.16 0 0 0 .09 0 .318.318 0 0 0 .1-.06zM2.066 2.452l.068-.056-.372-.587a.318.318 0 0 0-.056.103.16.16 0 0 0 .003.09l.241.56c.039-.041.078-.079.116-.11z"/><g id="_512203552"><path id="_512204176" class="fil1" d="M4.328 4.055a.08.08 0 0 1-.08.137l-.753-.443a.08.08 0 0 1-.013-.127.603.603 0 0 1 .24-.167.309.309 0 0 1 .192.001l.69.27a.08.08 0 0 1-.058.15l-.687-.27a.16.16 0 0 0-.09 0 .318.318 0 0 0-.1.06l.66.389z"/><path id="_512204008" class="fil1" d="M4.54 4.477a.08.08 0 0 1 .136-.086l.41.646a.318.318 0 0 0 .055-.102.16.16 0 0 0-.002-.09l-.292-.678a.08.08 0 0 1 .147-.063l.293.68a.309.309 0 0 1 .008.193.602.602 0 0 1-.177.26.08.08 0 0 1-.11-.024l-.467-.736z"/><path id="_512203696" class="fil1" d="M3.607 4.995a.08.08 0 0 1-.081.138l-.374-.22a.08.08 0 0 1-.014-.128.36.36 0 0 1 .144-.099.2.2 0 0 1 .13.002l.316.124a.08.08 0 0 1-.059.148l-.312-.122a.06.06 0 0 0-.02-.002l.27.16z"/><path id="_512203384" class="fil1" d="M3.624 5.228a.08.08 0 0 1 .135-.085l.167.263c0-.007 0-.013-.002-.019l-.132-.308a.08.08 0 0 1 .147-.063l.134.312a.201.201 0 0 1 .006.13.36.36 0 0 1-.112.161.08.08 0 0 1-.11-.025l-.233-.366z"/><path id="_512203360" class="fil1" d="M3.483 5.225a.238.238 0 0 1-.01-.132.28.28 0 0 1 .058-.12l.797-1.032c.08-.104.253-.268.434-.372.139-.08.285-.127.41-.096a.08.08 0 0 1 .058.056c.035.125-.007.274-.084.415-.1.186-.261.365-.364.45l-.996.823a.28.28 0 0 1-.12.063.238.238 0 0 1-.134-.007.08.08 0 0 1-.049-.048zm.147-.1a.12.12 0 0 0 .05-.028l.003-.002.997-.824c.092-.076.236-.236.326-.403a.537.537 0 0 0 .077-.245.54.54 0 0 0-.241.084c-.162.093-.316.239-.388.332L3.657 5.07l-.002.002a.12.12 0 0 0-.025.052z"/></g></g><path style="fill:none" d="M0 0h6.827v6.827H0z"/></svg>