<svg xmlns="http://www.w3.org/2000/svg" xmlns:xlink="http://www.w3.org/1999/xlink" version="1.1" x="0px" y="0px" viewBox="0 0 100 100" style="enable-background:new 0 0 100 100;" xml:space="preserve"><path fill="white" d="M51.373,47.824c0.155,0,1.185-0.677,1.185-0.677h1.233l0.935,0.677l-1.869,0.524l-1.492-0.526  C51.365,47.824,51.368,47.824,51.373,47.824z M51.101,47.147h-1.644l-2.764-1.877l1.457,0.188L51.101,47.147z M50.989,18.169  l0.486,1.014l1.644,1.051v1.014l-1.42-0.751l1.194,1.426v1.126l-1.494-0.375l-1.4-1.352l0.43-1.276l-1.419-1.501  c0,0-1.756,0-1.924,0s-0.392-0.788-0.392-0.901s0.784-0.938,0.784-0.938l1.844,0.3L50.989,18.169z M51.476,12.239L52.446,11  l2.503,0.413l3.735,2.43l0.299,0.718l1.457,1.056v1.089l-0.562,0.829v0.97l-0.672,0.791l0.672,3.153c0,0-1.493,0-1.604,0  s-2.635-2.572-2.797-2.572c-0.002,0-0.004,0-0.004,0.001c-0.002,0.001-0.004,0.001-0.004,0.001c-0.125,0-0.781-2.159-0.781-2.159  l-2.392-2.27c0,0-1.382,0.006-1.42,0c-0.106-0.017-0.804-0.888-0.956-0.888c-0.006,0-0.011,0.001-0.015,0.004l0.745-0.722V13.14  L51.476,12.239z M46.955,13.14c0,0,2.305-0.901,2.367-0.901c0.061,0,1.331,0.188,1.331,0.188l-1.331,2.578l-0.387,0.443  l-1.681-0.281l0.635-0.788l-0.934-0.413V13.14z M46.917,15.054l0.448,0.863h1.382l0.187,0.788c0,0-1.83-0.3-2.055-0.375  c-0.224-0.075-0.598-1.164-0.672-1.276C46.183,15.016,46.917,15.054,46.917,15.054z M43.63,13.843v0.535l0.187,0.626l0.523-0.439  l0.344,0.602l-0.569,0.282c0,0-0.388-0.026-0.677-0.026c-0.141,0-0.258,0.006-0.294,0.024c-0.002,0.001-0.004,0.002-0.007,0.002  c-0.134,0-0.89-1.409-0.89-1.409L43.63,13.843z M44.116,18.507c0,0-0.586,0.229-0.755,0.229c-0.012,0-2.234-0.605-2.234-0.605  l-0.261-1.464l1.382-0.751l0.859,0.638l0.672-0.225C43.779,16.555,44.116,18.507,44.116,18.507z M40.268,15.317  c0,0,1.105-0.752,1.295-0.752c0.005,0,0.009,0,0.012,0.001c0.149,0.037,0.672,0.6,0.672,0.6v0.488l-1.681,0.676h-0.56L40.268,15.317  z M73.626,63.288l-1.83,2.177l-0.188,2.064l-1.157,2.813c0,0-0.897,1.164-1.009,1.201c-0.112,0.038-1.195,0.226-1.195,0.226  l-2.54,1.313c0,0-0.336,1.539-0.411,1.651c-0.074,0.113-3.66,3.828-3.66,3.828l-2.018-0.338l0.635,1.201l-0.71,1.127l-2.278,0.375  l-0.262,0.938l-1.27,0.073v1.053l-1.606,1.65l0.747,0.603l-1.83,1.728l0.336,1.465L54.425,89h-1.532l-1.082-0.45l-1.271-2.364  l0.784-2.365l0.188-3.791l1.53-5.329l0.672-5.03l-3.511-2.59l-2.951-5.48l0.448-0.713l-0.262-0.752l0.411-1.576l0.635-0.412  l0.187-0.602l0.648-0.676l0.248-1.652l-0.56-0.751l-0.374-0.901l-0.822,0.375l0.224,0.525h-0.523l-1.046-0.375l-1.681-1.201  l-0.224-0.676l-1.158-1.126l-1.943-0.601l-0.486-0.638l-1.307-0.901l-1.083,0.188l-3.325-1.839l-1.009-1.239v-1.314l-2.129-3.866  l-0.56-1.802l-0.56-0.938l-0.037,1.051l1.009,3.528l0.299,1.126l-1.083-1.577l-0.897-2.89l-0.261-1.914l-0.897-1.689  c0,0-0.374-3.453-0.374-3.566c0-0.113,0.934-1.914,0.934-1.914l1.27-2.665l-0.299-1.539l0.411-0.413l0.523-2.402v-3.716  l-0.523-0.901l-0.448-1.239l-0.486,0.3l-0.896-0.413l1.009-0.563l-1.457,0.15l-0.224,0.413h-1.98l-0.822-0.338l1.868-0.488  l-0.187-0.826l0.224-0.713l0.897-0.864l1.233-0.563l0.71,0.563l0.486-0.263l-0.261-0.938l0.598-0.713l0.859,0.413l-0.299,0.15  l0.261,0.375l0.897-1.164l0.56-0.263l2.316,0.676l-0.075,0.6l1.009,2.928c0,0,1.756,0,1.83,0.075c0.075,0.075,1.83,2.365,1.83,2.365  l2.092,0.563c0,0,0.957,0.378,1.138,0.378c0.008,0,0.015-0.001,0.02-0.002c0.112-0.037,0.897-0.976,0.897-0.976v1.314l0.598-0.375  l-0.299-0.938l0.672-0.826c0,0-0.747,0-0.897,0.075c-0.004,0.002-0.008,0.003-0.012,0.003c-0.129,0,0.012-1.204,0.012-1.204h1.158  l0.672,0.375l-0.934,0.751l0.523,0.601l-0.261,0.601l0.822,0.488l0.037,0.863l0.71-1.239l0.934,0.413l-0.299,1.426l-0.934-0.075  l-0.598,1.089l-1.345,0.6l-1.457,1.689l0.299,1.464l0.784-0.113l1.494,1.239l1.27,0.225l-0.299,1.126l1.121,1.276l0.448-0.826  l-0.261-1.426l1.195-0.863l-0.859-1.239l0.349-0.638l-0.349-1.389l1.382,0.037l1.344,0.751l0.225,1.051l0.747,0.225l0.636-1.014  l1.194,1.727l1.905,1.089l1.082,0.863l-0.148,0.713l0.336-0.225l-0.037,1.126l1.195-0.15c0,0,0.598,1.427,0.598,1.539  c0,0.048-0.474,0.062-1.016,0.062c-0.721,0-1.563-0.025-1.563-0.025l0.375-1.839l-0.188-0.413l-1.308,1.013l-1.605-0.188  l-1.568,1.426l1.307-0.751l0.935,0.15l-0.635,0.676l0.71,0.938l1.568,0.375l-1.904,1.164l-0.561-0.713c0,0-1.346,0.788-1.457,0.863  s0.111,1.089,0.111,1.089l-1.193,0.488l-0.973,1.276l-0.465,2.144l-2.559,2.14c0,0,0.71,2.628,0.71,2.74  c0,0.113-0.411,1.201-0.411,1.201l-0.971-2.402l-0.56-0.826l-0.523,0.188l-2.055-0.488l-0.598,0.713c0,0-1.942-0.45-2.129-0.45  c-0.187,0-1.868,0.826-1.868,0.826l0.037,1.239l-0.523,1.051l0.075,2.102l1.532,1.577l1.83-0.676l0.523-1.051l1.793-0.075  l-0.56,2.552c0,0-0.784,0.713-0.897,0.788c-0.019,0.012,0.039,0.018,0.149,0.018c0.549,0,2.391-0.13,2.391-0.13l0.822,0.526  l-0.56,2.778l1.644,1.051l1.606-0.451l0.71,0.863l0.859-1.274l2.54-1.313l-0.261,0.713l1.494-0.188l0.598,0.524l2.615-0.148  l2.167,1.051l1.681,1.576l2.764,0.037l1.494,2.064l-0.074,1.2l3.063,0.526l0.374,0.488l2.167-0.113l1.905,1.164h0.934  c0,0,0.301,1.164,0.301,1.275C74.226,61.712,73.626,63.288,73.626,63.288z M55.879,30.745l-0.396-0.095  c0.111-0.122,0.181-0.2,0.248-0.37c0,0,0,0,0.002,0c0.051,0,0.101-0.004,0.149-0.011C55.853,30.434,55.837,30.554,55.879,30.745z"/></svg>