<svg width="40" height="40" viewBox="0 0 40 40" fill="none" xmlns="http://www.w3.org/2000/svg">
<path fill-rule="evenodd" clip-rule="evenodd" d="M33.8173 11.6676L24.5507 4.81763C21.8401 2.83878 18.1613 2.83878 15.4507 4.81763L6.20065 11.6676C4.40972 12.9579 3.34416 15.027 3.33398 17.2343V29.6176C3.43403 33.6064 6.74506 36.7608 10.734 36.6676H29.2673C33.2562 36.7608 36.5673 33.6064 36.6673 29.6176V17.2176C36.653 15.0199 35.5951 12.9598 33.8173 11.6676ZM34.1673 29.6176C34.0679 32.2259 31.8758 34.2614 29.2673 34.1676H10.734C8.12895 34.2522 5.94236 32.2218 5.83398 29.6176V17.2343C5.84288 15.8175 6.53094 14.491 7.68398 13.6676L16.934 6.8343C18.7608 5.50026 21.2405 5.50026 23.0673 6.8343L32.3173 13.6843C33.4694 14.4933 34.1587 15.8099 34.1673 17.2176V29.6176ZM12.5007 26.251H27.5007C28.191 26.251 28.7507 26.8106 28.7507 27.501C28.7507 28.1913 28.191 28.751 27.5007 28.751H12.5007C11.8103 28.751 11.2507 28.1913 11.2507 27.501C11.2507 26.8106 11.8103 26.251 12.5007 26.251Z" fill="white"/>
</svg>
