<svg width="40" height="40" viewBox="0 0 40 40" fill="none" xmlns="http://www.w3.org/2000/svg">
<path fill-rule="evenodd" clip-rule="evenodd" d="M7.63281 3.3335H14.5828C16.6539 3.3335 18.3328 5.01243 18.3328 7.0835V10.7002C18.3328 12.7712 16.6539 14.4502 14.5828 14.4502H7.63281C5.56174 14.4502 3.88281 12.7712 3.88281 10.7002V7.0835C3.88281 5.01243 5.56174 3.3335 7.63281 3.3335ZM14.5828 11.9502C15.2694 11.9412 15.8238 11.3868 15.8328 10.7002V7.0835C15.8238 6.39689 15.2694 5.84247 14.5828 5.8335H7.63281C6.94621 5.84247 6.39179 6.39689 6.38281 7.0835V10.7002C6.39179 11.3868 6.94621 11.9412 7.63281 11.9502H14.5828Z" fill="white"/>
<path fill-rule="evenodd" clip-rule="evenodd" d="M26.5328 3.3335H32.3661C34.4372 3.3335 36.1161 5.01243 36.1161 7.0835V18.4668C36.1161 20.5379 34.4372 22.2168 32.3661 22.2168H26.5328C25.5369 22.2213 24.5804 21.8276 23.8762 21.1234C23.172 20.4192 22.7783 19.4628 22.7828 18.4668V7.0835C22.7828 5.01243 24.4617 3.3335 26.5328 3.3335ZM32.3661 19.7168C33.0565 19.7168 33.6161 19.1572 33.6161 18.4668V7.0835C33.6071 6.39689 33.0527 5.84247 32.3661 5.8335H26.5328C25.8424 5.8335 25.2828 6.39314 25.2828 7.0835V18.4668C25.2782 18.7997 25.4085 19.1203 25.6439 19.3557C25.8793 19.5911 26.1999 19.7214 26.5328 19.7168H32.3661Z" fill="white"/>
<path fill-rule="evenodd" clip-rule="evenodd" d="M26.5328 26.6668H32.3661C34.4372 26.6668 36.1161 28.3458 36.1161 30.4168V32.9168C36.1161 34.9879 34.4372 36.6668 32.3661 36.6668H26.5328C24.4617 36.6668 22.7828 34.9879 22.7828 32.9168V30.4168C22.7828 28.3458 24.4617 26.6668 26.5328 26.6668ZM32.3661 34.1668C33.0528 34.1579 33.6072 33.6034 33.6161 32.9168V30.4168C33.6072 29.7302 33.0528 29.1758 32.3661 29.1668H26.5328C25.8425 29.1668 25.2828 29.7265 25.2828 30.4168V32.9168C25.2828 33.6072 25.8425 34.1668 26.5328 34.1668H32.3661Z" fill="white"/>
<path fill-rule="evenodd" clip-rule="evenodd" d="M7.63281 18.8835H14.5828C16.6539 18.8835 18.3328 20.5624 18.3328 22.6335V32.9168C18.3328 34.9879 16.6539 36.6668 14.5828 36.6668H7.63281C5.56174 36.6668 3.88281 34.9879 3.88281 32.9168V22.6335C3.88281 20.5624 5.56174 18.8835 7.63281 18.8835ZM14.5828 34.1668C15.2694 34.1579 15.8238 33.6034 15.8328 32.9168V22.6335C15.8238 21.9469 15.2694 21.3925 14.5828 21.3835H7.63281C6.94621 21.3925 6.39179 21.9469 6.38281 22.6335V32.9168C6.39179 33.6034 6.94621 34.1579 7.63281 34.1668H14.5828Z" fill="white"/>
</svg>
