<svg width="40" height="40" viewBox="0 0 40 40" fill="none" xmlns="http://www.w3.org/2000/svg">
<path fill-rule="evenodd" clip-rule="evenodd" d="M33.034 9.21683C33.035 10.6228 32.5325 11.9827 31.6174 13.0502L28.5674 16.5335C26.6977 18.7219 26.6977 21.9451 28.5674 24.1335L31.5507 27.7002C33.0248 29.4472 33.35 31.8913 32.3839 33.9629C31.4179 36.0346 29.3365 37.3565 27.0507 37.3502H14.2007C10.9579 37.341 8.334 34.7096 8.33402 31.4668C8.32934 30.0862 8.82019 28.7496 9.71735 27.7002L12.734 24.1002C14.5643 21.91 14.5643 18.7237 12.734 16.5335L9.71735 12.9335C8.82019 11.884 8.32934 10.5475 8.33402 9.16683C8.3614 5.94358 10.9773 3.34251 14.2007 3.3335H27.1674C30.4101 3.34268 33.034 5.97405 33.034 9.21683ZM29.7674 29.1835L26.8007 25.6335C24.1818 22.5814 24.1748 18.0771 26.784 15.0168L29.784 11.5335C30.3452 10.8925 30.6534 10.0688 30.6507 9.21683C30.6694 7.26616 29.1176 5.66232 27.1674 5.61683H14.2007C12.821 5.61745 11.5666 6.41739 10.9841 7.6681C10.4017 8.91881 10.5966 10.3937 11.484 11.4502L14.5174 15.0502C17.0706 18.0971 17.0706 22.5366 14.5174 25.5835L11.484 29.1835C10.5966 30.2399 10.4017 31.7148 10.9841 32.9656C11.5666 34.2163 12.821 35.0162 14.2007 35.0168H27.0507C29.0113 35.0168 30.6007 33.4274 30.6007 31.4668C30.6076 30.6301 30.3116 29.8191 29.7674 29.1835Z" fill="white"/>
<path d="M25.334 30.7668H16.034C15.4478 30.6964 15.0066 30.199 15.0066 29.6085C15.0066 29.018 15.4478 28.5206 16.034 28.4502H25.334C25.9203 28.5206 26.3615 29.018 26.3615 29.6085C26.3615 30.199 25.9203 30.6964 25.334 30.7668Z" fill="white"/>
</svg>
