<svg width="40" height="40" viewBox="0 0 40 40" fill="none" xmlns="http://www.w3.org/2000/svg">
<path fill-rule="evenodd" clip-rule="evenodd" d="M10.0007 3.3335H30.0007C33.6826 3.3335 36.6673 6.31826 36.6673 10.0002V30.0002C36.6673 33.6821 33.6826 36.6668 30.0007 36.6668H10.0007C6.31875 36.6668 3.33398 33.6821 3.33398 30.0002V10.0002C3.33398 6.31826 6.31875 3.3335 10.0007 3.3335ZM32.9469 32.9464C33.7283 32.165 34.1673 31.1052 34.1673 30.0002V10.0002C34.1673 8.89509 33.7283 7.83529 32.9469 7.05388C32.1655 6.27248 31.1057 5.8335 30.0007 5.8335H10.0007C7.69946 5.8335 5.83398 7.69898 5.83398 10.0002V30.0002C5.83398 31.1052 6.27297 32.165 7.05437 32.9464C7.83577 33.7278 8.89558 34.1668 10.0007 34.1668H30.0007C31.1057 34.1668 32.1655 33.7278 32.9469 32.9464Z" fill="white"/>
<path d="M27.0673 18.7502H12.934C12.2436 18.7502 11.684 19.3098 11.684 20.0002C11.684 20.6905 12.2436 21.2502 12.934 21.2502H27.0673C27.7577 21.2502 28.3173 20.6905 28.3173 20.0002C28.3173 19.3098 27.7577 18.7502 27.0673 18.7502Z" fill="white"/>
</svg>
