<svg width="40" height="40" viewBox="0 0 40 40" fill="none" xmlns="http://www.w3.org/2000/svg">
<path fill-rule="evenodd" clip-rule="evenodd" d="M8.75 5H14.5833C16.6544 5 18.3333 6.67893 18.3333 8.75V31.25C18.3333 33.3211 16.6544 35 14.5833 35H8.75C6.67893 35 5 33.3211 5 31.25V8.75C5 6.67893 6.67893 5 8.75 5ZM14.5833 32.5C15.2699 32.491 15.8244 31.9366 15.8333 31.25V8.75C15.8244 8.0634 15.2699 7.50898 14.5833 7.5H8.75C8.0634 7.50898 7.50898 8.0634 7.5 8.75V31.25C7.50898 31.9366 8.0634 32.491 8.75 32.5H14.5833Z" fill="white"/>
<path fill-rule="evenodd" clip-rule="evenodd" d="M25.4167 21.6667H31.25C33.3211 21.6667 35 23.3456 35 25.4167V31.25C35 33.3211 33.3211 35 31.25 35H25.4167C23.3456 35 21.6667 33.3211 21.6667 31.25V25.4167C21.6667 23.3456 23.3456 21.6667 25.4167 21.6667ZM31.25 32.5C31.9366 32.491 32.491 31.9366 32.5 31.25V25.4167C32.491 24.7301 31.9366 24.1756 31.25 24.1667H25.4167C24.7301 24.1756 24.1756 24.7301 24.1667 25.4167V31.25C24.1756 31.9366 24.7301 32.491 25.4167 32.5H31.25Z" fill="white"/>
<path fill-rule="evenodd" clip-rule="evenodd" d="M25.4167 5H31.25C33.3211 5 35 6.67893 35 8.75V14.5833C35 16.6544 33.3211 18.3333 31.25 18.3333H25.4167C23.3456 18.3333 21.6667 16.6544 21.6667 14.5833V8.75C21.6667 6.67893 23.3456 5 25.4167 5ZM31.25 15.8333C31.9366 15.8244 32.491 15.2699 32.5 14.5833V8.75C32.491 8.0634 31.9366 7.50898 31.25 7.5H25.4167C24.7301 7.50898 24.1756 8.0634 24.1667 8.75V14.5833C24.1756 15.2699 24.7301 15.8244 25.4167 15.8333H31.25Z" fill="white"/>
</svg>
