<svg width="40" height="40" viewBox="0 0 40 40" fill="none" xmlns="http://www.w3.org/2000/svg">
<path fill-rule="evenodd" clip-rule="evenodd" d="M16.5081 22.6793C17.73 22.6793 18.8951 23.1952 19.7165 24.0998C21.445 26.0385 21.4593 28.961 19.7498 30.9165L15.7331 35.2332C15.1201 35.9123 14.248 36.2998 13.3331 36.2998C12.4183 36.2998 11.5462 35.9123 10.9331 35.2332L6.91648 30.9165C5.20492 28.9666 5.20492 26.0498 6.91648 24.0998C7.73781 23.1952 8.90292 22.6793 10.1248 22.6793C11.3385 22.6793 12.4961 23.1882 13.3165 24.0816C14.1369 23.1882 15.2945 22.6793 16.5081 22.6793ZM13.8498 33.5165L17.8665 29.2165C18.6882 28.2048 18.6812 26.7536 17.8498 25.7498C17.5173 25.3528 17.026 25.1234 16.5081 25.1234C15.9903 25.1234 15.499 25.3528 15.1665 25.7498L14.2165 26.8165C13.9816 27.0857 13.6403 27.238 13.2831 27.2332C12.9269 27.2336 12.5873 27.0821 12.3498 26.8165L11.3998 25.7498C11.0857 25.3236 10.5877 25.072 10.0581 25.072C9.52863 25.072 9.03062 25.3236 8.71648 25.7498C7.88339 26.7552 7.88339 28.2111 8.71648 29.2165L12.7165 33.5165C12.8624 33.6772 13.0663 33.7731 13.2831 33.7832C13.5009 33.7769 13.7062 33.6803 13.8498 33.5165Z" fill="#222222"/>
<path fill-rule="evenodd" clip-rule="evenodd" d="M22.3831 4.03317L34.0498 15.6998C34.3022 15.9564 34.4352 16.3071 34.4165 16.6665V28.3332C34.4165 32.7054 30.8721 36.2498 26.4998 36.2498H21.6665C20.9761 36.2498 20.4165 35.6902 20.4165 34.9998C20.4165 34.3095 20.9761 33.7498 21.6665 33.7498H26.4998C29.4876 33.7407 31.9073 31.3209 31.9165 28.3332V17.9165H24.8331C22.3018 17.9165 20.2498 15.8645 20.2498 13.3332V6.2165H16.4998C15.0574 6.21648 13.6746 6.79173 12.6578 7.81478C11.641 8.83782 11.0743 10.2241 11.0831 11.6665V19.9998C11.0831 20.6902 10.5235 21.2498 9.83314 21.2498C9.14279 21.2498 8.58314 20.6902 8.58314 19.9998V11.6665C8.56089 9.55247 9.38513 7.51736 10.8722 6.01463C12.3593 4.51189 14.3857 3.66639 16.4998 3.6665H21.4998C21.8312 3.6668 22.1489 3.79868 22.3831 4.03317ZM22.7498 7.94984V13.3332C22.768 14.4707 23.6954 15.3833 24.8331 15.3832H30.1831L22.7498 7.94984Z" fill="#222222"/>
</svg>
