<svg width="40" height="40" viewBox="0 0 40 40" fill="none" xmlns="http://www.w3.org/2000/svg">
<path fill-rule="evenodd" clip-rule="evenodd" d="M10.9493 19.0331C11.9714 19.4898 12.8106 20.2762 13.3327 21.2665L17.7327 29.2831C18.062 29.8795 18.2287 30.552 18.216 31.2331L18.1327 34.5665C18.13 35.2544 17.7618 35.8891 17.166 36.2331C16.8939 36.3771 16.5905 36.4515 16.2827 36.4498C15.9117 36.4483 15.5484 36.3445 15.2327 36.1498L12.4327 34.4831C11.851 34.1239 11.3739 33.6182 11.0493 33.0165L6.66601 24.9998C6.11375 23.9758 5.9257 22.7946 6.13268 21.6498C6.25993 20.569 6.87368 19.6054 7.79934 19.0331C8.79126 18.5392 9.95743 18.5392 10.9493 19.0331ZM13.716 32.2665L15.6493 33.4331L15.6327 31.1331C15.627 30.8887 15.5642 30.649 15.4493 30.4331L11.066 22.4165C10.811 21.9118 10.3944 21.507 9.88268 21.2665C9.71175 21.1811 9.52372 21.1355 9.33268 21.1331C9.19332 21.1345 9.05626 21.1687 8.93268 21.2331C8.65639 21.4183 8.47871 21.7185 8.44934 22.0498C8.37318 22.6269 8.4904 23.213 8.78268 23.7165L13.166 31.6665C13.2842 31.9177 13.476 32.127 13.716 32.2665Z" fill="#222222"/>
<path fill-rule="evenodd" clip-rule="evenodd" d="M22.0325 3.91647L33.6992 15.5831C33.9463 15.8294 34.0792 16.1678 34.0659 16.5165V28.1831C34.0659 30.2828 33.2318 32.2964 31.7471 33.7811C30.2625 35.2657 28.2488 36.0998 26.1492 36.0998H21.3659C20.6755 36.0998 20.1159 35.5402 20.1159 34.8498C20.1159 34.1594 20.6755 33.5998 21.3659 33.5998H26.1492C29.1369 33.5907 31.5567 31.1709 31.5659 28.1831V17.7665H24.4825C21.955 17.7573 19.9083 15.7106 19.8992 13.1831V6.0998H16.1492C13.1576 6.0998 10.7325 8.52493 10.7325 11.5165V15.9331C10.7325 16.6235 10.1729 17.1831 9.48252 17.1831C8.79217 17.1831 8.23252 16.6235 8.23252 15.9331V11.5165C8.21921 9.40819 9.0474 7.38169 10.5335 5.88619C12.0196 4.3907 14.0409 3.54976 16.1492 3.5498H21.1492C21.4806 3.5501 21.7983 3.68198 22.0325 3.91647ZM22.3992 7.81647V13.1831C22.3992 14.3337 23.3319 15.2665 24.4825 15.2665H29.8492L22.3992 7.81647Z" fill="#222222"/>
</svg>
