<svg width="40" height="40" viewBox="0 0 40 40" fill="none" xmlns="http://www.w3.org/2000/svg">
<path d="M26.3162 13.5835H18.1329C17.5069 13.5835 16.9995 13.0761 16.9995 12.4502C16.9995 11.8242 17.5069 11.3168 18.1329 11.3168H26.3162C26.9421 11.3168 27.4495 11.8242 27.4495 12.4502C27.4495 13.0761 26.9421 13.5835 26.3162 13.5835Z" fill="#222222"/>
<path d="M18.1829 21.1002H24.0162C24.6421 21.1002 25.1495 21.6076 25.1495 22.2335C25.1495 22.8594 24.6421 23.3668 24.0162 23.3668H18.1829C17.5569 23.3668 17.0495 22.8594 17.0495 22.2335C17.0495 21.6076 17.5569 21.1002 18.1829 21.1002Z" fill="#222222"/>
<path d="M28.6495 16.2002H18.1329C17.692 16.1468 17.2599 16.352 17.0226 16.7273C16.7853 17.1026 16.7853 17.581 17.0226 17.9563C17.2599 18.3317 17.692 18.5369 18.1329 18.4835H28.6495C29.227 18.4136 29.6613 17.9235 29.6613 17.3418C29.6613 16.7602 29.227 16.2701 28.6495 16.2002Z" fill="#222222"/>
<path fill-rule="evenodd" clip-rule="evenodd" d="M19.9829 3.3335H26.7829C31.1551 3.3335 34.6995 6.87791 34.6995 11.2502V23.4502C34.7302 26.7663 32.6865 29.7486 29.5829 30.9168C29.2634 34.356 26.3701 36.9816 22.9162 36.9668H14.5829C10.2106 36.9668 6.66619 33.4224 6.66619 29.0502V15.3502C6.6417 11.9593 9.16643 9.09032 12.5329 8.6835C13.625 5.49673 16.6142 3.35013 19.9829 3.3335ZM14.5162 34.4002H22.8495C24.7126 34.4015 26.3482 33.1612 26.8495 31.3668H19.9829C15.6106 31.3668 12.0662 27.8224 12.0662 23.4502V11.3168C10.3101 11.8392 9.10441 13.4514 9.09953 15.2835V28.9835C9.09953 31.975 11.5246 34.4002 14.5162 34.4002ZM32.1995 23.4502C32.1995 26.4417 29.7744 28.8668 26.7829 28.8668H19.9829C16.9951 28.8577 14.5753 26.4379 14.5662 23.4502V11.2502C14.5753 8.26242 16.9951 5.84265 19.9829 5.8335H26.7829C29.7744 5.8335 32.1995 8.25862 32.1995 11.2502V23.4502Z" fill="#222222"/>
</svg>
