<svg width="40" height="40" viewBox="0 0 40 40" fill="none" xmlns="http://www.w3.org/2000/svg">
<path d="M13.316 15.8835H24.4827C25.1042 15.8109 25.5729 15.2843 25.5729 14.6585C25.5729 14.0327 25.1042 13.5061 24.4827 13.4335H13.316C12.8442 13.3784 12.3828 13.5991 12.1295 14.0009C11.8762 14.4027 11.8762 14.9143 12.1295 15.3161C12.3828 15.7179 12.8442 15.9386 13.316 15.8835Z" fill="#222222"/>
<path d="M13.316 29.2168H21.2827C21.7545 29.272 22.216 29.0513 22.4692 28.6494C22.7225 28.2476 22.7225 27.7361 22.4692 27.3342C22.216 26.9324 21.7545 26.7117 21.2827 26.7668H13.316C12.8442 26.7117 12.3828 26.9324 12.1295 27.3342C11.8762 27.7361 11.8762 28.2476 12.1295 28.6494C12.3828 29.0513 12.8442 29.272 13.316 29.2168Z" fill="#222222"/>
<path d="M27.666 22.5502H13.316C12.8442 22.6053 12.3828 22.3846 12.1295 21.9828C11.8762 21.5809 11.8762 21.0694 12.1295 20.6676C12.3828 20.2657 12.8442 20.045 13.316 20.1002H27.666C28.2876 20.1728 28.7562 20.6994 28.7562 21.3252C28.7562 21.9509 28.2876 22.4775 27.666 22.5502Z" fill="#222222"/>
<path fill-rule="evenodd" clip-rule="evenodd" d="M26.316 37.6502H14.6493C10.2376 37.641 6.66601 34.0619 6.66602 29.6502V11.3168C6.67518 6.91156 10.2441 3.34266 14.6493 3.3335H26.316C30.7278 3.33349 34.3068 6.90506 34.316 11.3168V29.6502C34.316 31.7719 33.4732 33.8067 31.9729 35.307C30.4726 36.8073 28.4377 37.6502 26.316 37.6502ZM14.6493 5.9835C11.7076 5.99265 9.32516 8.37511 9.31601 11.3168V29.6502C9.316 32.5984 11.7011 34.991 14.6493 35.0002H26.316C29.2707 35.0002 31.666 32.6049 31.666 29.6502V11.3168C31.6568 8.36862 29.2642 5.98348 26.316 5.9835H14.6493Z" fill="#222222"/>
</svg>
