<svg width="40" height="40" viewBox="0 0 40 40" fill="none" xmlns="http://www.w3.org/2000/svg">
<path fill-rule="evenodd" clip-rule="evenodd" d="M8.46832 25.0356C9.61643 22.9545 11.8066 21.6634 14.1834 21.6668C16.9954 21.7084 19.4635 23.5493 20.305 26.2328C21.1466 28.9162 20.1717 31.8368 17.887 33.4768C15.6023 35.1167 12.5233 35.1059 10.2501 33.4501L7.83341 35.9668C7.59476 36.2068 7.27187 36.3444 6.93341 36.3501C6.60944 36.3535 6.2975 36.2275 6.06674 36.0001C5.57932 35.5121 5.57932 34.7215 6.06674 34.2334L8.48341 31.6668H8.66674C7.39625 29.658 7.32021 27.1168 8.46832 25.0356ZM10.1667 28.1834C10.1667 30.4018 11.9651 32.2001 14.1834 32.2001V32.1501C16.3824 32.1503 18.1727 30.3822 18.2001 28.1834C18.2001 25.9651 16.4017 24.1668 14.1834 24.1668C11.9651 24.1668 10.1667 25.9651 10.1667 28.1834Z" fill="#222222"/>
<path fill-rule="evenodd" clip-rule="evenodd" d="M22.2499 3.96676L33.9166 15.6334C34.1945 15.8648 34.3587 16.2052 34.3666 16.5668V28.2334C34.3666 30.3331 33.5325 32.3467 32.0478 33.8314C30.5632 35.316 28.5496 36.1501 26.4499 36.1501H21.6666C20.9762 36.1501 20.4166 35.5905 20.4166 34.9001C20.4166 34.2097 20.9762 33.6501 21.6666 33.6501H26.3666C29.3581 33.6501 31.7833 31.225 31.7833 28.2334V17.8168H24.6999C22.1724 17.8076 20.1257 15.7609 20.1166 13.2334V6.1501H16.3666C13.3788 6.15925 10.9591 8.57902 10.9499 11.5668V19.9001C10.9499 20.5905 10.3903 21.1501 9.69992 21.1501C9.00956 21.1501 8.44992 20.5905 8.44992 19.9001V11.5668C8.4366 9.45848 9.2648 7.43198 10.7509 5.93649C12.237 4.44099 14.2583 3.60006 16.3666 3.6001H21.3666C21.698 3.60039 22.0157 3.73228 22.2499 3.96676ZM22.6166 7.86676V13.2334C22.6166 14.384 23.5493 15.3168 24.6999 15.3168H29.9999L22.6166 7.86676Z" fill="#222222"/>
</svg>
