<svg xmlns="http://www.w3.org/2000/svg" version="1.1" viewBox="0 0 100 100">
 <g>
  <path fill="white" d="m41.039 70.191v-1.6719c0-0.17188 0.21875-0.24219 0.31641-0.10547l0.83984 1.1602c0.27344 0.375 0.22266 0.89062-0.11328 1.2109-0.14062 0.13281-0.33984 0.17578-0.52344 0.11719-0.30859-0.10156-0.51953-0.38672-0.51953-0.71094z"/>
  <path fill="white" d="m73.344 37.551c-0.38672-0.042969 0.61719 1.1172 0.92578 1.6758 0.066407 0.089844 0.089844 0.20703 0.070313 0.32031-0.023438 0.10938-0.085938 0.21094-0.17969 0.27344-0.13672 0.089844-0.32031 0.0625-0.42188-0.066406-0.64062-0.99219-1.2031-2.0352-1.8008-3.0508-0.13281-0.22656-0.28906-0.44531-0.46094-0.64453l-0.79687-0.92969-0.003907-0.003906c-0.10938-0.089844-0.17578-0.22656-0.18359-0.37109-0.007813-0.14453 0.046874-0.28516 0.15234-0.38672 0.20703-0.12109 0.46875-0.082032 0.62891 0.097656 0.66016 0.99609 1.4453 1.9062 2.3359 2.7109 0.066406 0.050781 0.33594 0.24219 0.29688 0.33984-0.039062 0.09375-0.32031 0.070313-0.5625 0.035156z"/>
  <path fill="white" d="m61.27 60.242c-0.15625-0.23828-0.71094-0.20313-1.0742-0.007813-0.10937 0.058594-0.44141 0.23828-0.47266 0.55469 0.007813 0.375 0.29297 0.6875 0.66797 0.73438 0.57422 0.035156 1.0938-0.94531 0.87891-1.2812z"/>
  <path fill="white" d="m67.57 58.461c-0.25781 0.027343-0.57031-0.53516-0.62891-1.0117-0.097656-0.80859 0.5-1.6094 0.76172-1.5547 0.058594 0.011719 0.11719 0.070313 0.1875 0.32031 0.26562 0.92188 0.054687 2.207-0.32031 2.2461z"/>
  <path fill="white" d="m68.285 61.211 0.55859 0.042968h0.003906c0.12109 0.011719 0.21875 0.10156 0.23828 0.21875l0.046874 0.28516h0.003907c0.03125 0.1875 0.125 0.35547 0.26953 0.48047 0.089844 0.078125 0.13281 0.19141 0.12109 0.30859l-0.03125 0.25391c-0.019532 0.16016-0.14062 0.29297-0.30078 0.32031-0.15234 0.03125-0.26562 0.16016-0.26953 0.31641l-0.007812 0.19531h-0.003907c0 0.074219 0.023438 0.14453 0.078126 0.19922 0.050781 0.050781 0.12109 0.082031 0.19531 0.082031 0.12891 0 0.21484 0.13672 0.16016 0.25391l-0.066406 0.14453c-0.03125 0.066406-0.027344 0.14844 0.011719 0.21094 0.042969 0.0625 0.11328 0.10156 0.1875 0.10156h0.53906c0.22266 0 0.4375 0.10156 0.57812 0.27734l0.4375 0.54297c0.050782 0.066407 0.0625 0.15234 0.027344 0.22656-0.058594 0.11719-0.20703 0.15234-0.30859 0.074219l-0.56641-0.42969c-0.16797-0.125-0.375-0.1875-0.58203-0.17188l-0.23828 0.015625c-0.078126 0.007813-0.14063 0.066406-0.15234 0.14453l-0.074219 0.55078c-0.015625 0.125-0.16797 0.18359-0.26562 0.10547l-0.09375-0.078126c-0.09375-0.078124-0.16406-0.17578-0.20703-0.28906l-0.89062-2.332c-0.042969-0.10938 0.035156-0.22656 0.15234-0.23438 0.097656-0.003906 0.17187-0.082032 0.17187-0.17969v-1.3789c0-0.074219 0.03125-0.14062 0.082032-0.19141 0.054687-0.046875 0.125-0.074219 0.19531-0.066406z"/>
  <path fill="white" d="m67.758 67.09c-0.20312 0.41797-0.46875 0.80469-0.78906 1.1406l-0.28516 0.29688c-0.12109 0.12891-0.17188 0.3125-0.13281 0.48438 0.019531 0.074219 0.10938 0.10156 0.16406 0.050781l0.67578-0.62891c0.070313-0.066406 0.12109-0.14844 0.14844-0.23828 0.023438-0.085937 0.085938-0.15625 0.16797-0.1875l0.15234-0.0625c0.0625-0.023437 0.11719-0.074218 0.15234-0.13672l0.14062-0.26172h-0.003906c0.042968-0.082031 0.039062-0.17969-0.015626-0.25391l-0.16016-0.21875c-0.050781-0.082031-0.17578-0.070313-0.21484 0.015625z"/>
  <path fill="white" d="m69.797 66.465 0.39844 0.09375h-0.003906c0.11328 0.023437 0.19141 0.125 0.19141 0.23828 0 0.15625 0.125 0.28125 0.28125 0.28125 0.078126 0 0.15625 0.03125 0.21094 0.085937 0.058594 0.058594 0.089844 0.13281 0.089844 0.21484v0.15234c0 0.10938-0.050782 0.21484-0.13672 0.28516-0.0625 0.046875-0.097656 0.11719-0.10938 0.19141l-0.050781 0.40234c-0.011719 0.097656-0.12109 0.14453-0.19922 0.085938l-0.39453-0.29297c-0.050781-0.035156-0.085938-0.09375-0.089844-0.15625-0.007813-0.0625 0.011719-0.125 0.054687-0.17188 0.10156-0.11719 0.03125-0.30078-0.125-0.31641-0.17969-0.019532-0.31641-0.17188-0.31641-0.35547v-0.58203c0.003906-0.10547 0.097656-0.17969 0.19922-0.15625z"/>
  <path fill="white" d="m71.328 70.504-0.007813-0.5625v-0.003906c-0.003906-0.082031-0.039062-0.16406-0.10547-0.21484-0.082032-0.074218-0.19531-0.097656-0.30078-0.066406l-0.28516 0.085938h-0.003906c-0.17578 0.050781-0.33594 0.16016-0.44531 0.30859l-0.16406 0.21875c-0.046875 0.0625-0.14844 0.023438-0.14062-0.054687l0.054688-0.51172h-0.003907c0.015625-0.14453 0.10156-0.27734 0.23047-0.34766l0.47266-0.26562c0.10547-0.058594 0.23438-0.046875 0.32422 0.03125 0.078125 0.058594 0.18359 0.066406 0.26562 0.015625l0.46094-0.29297c0.22266-0.14062 0.38672-0.35156 0.47656-0.60156 0.027344-0.078126 0.13281-0.097657 0.1875-0.03125 0.22266 0.27344 0.39062 0.58984 0.49219 0.92578l0.12891 0.42969v0.003906c0.042968 0.14063 0.03125 0.29297-0.039063 0.42578l-0.078125 0.15625c-0.03125 0.058594-0.10547 0.085937-0.16406 0.058594l-0.30469-0.058594c-0.11328-0.027344-0.14453 0.16016-0.10547 0.25l0.11719 0.30078-0.003906-0.003906c0.046875 0.09375 0.070312 0.19922 0.074219 0.30469l-0.035157 0.14453h0.003907c-0.027344 0.10937-0.14844 0.16016-0.24609 0.10156l-0.64844-0.38672c-0.125-0.074219-0.20312-0.21094-0.20703-0.35938z"/>
  <path fill="white" d="m61.824 74.223 0.26562 0.12891h0.003906c0.097656 0.046876 0.21484 0.042969 0.3125-0.003906s0.16797-0.13672 0.19141-0.24609l0.082032-0.36719v0.003906c0.039062-0.17578 0.1875-0.30859 0.36719-0.32031 0.42188-0.035157 0.79688-0.28516 0.98828-0.66016l0.39062-0.76562c0.10156-0.20313 0.33203-0.30859 0.55469-0.25781 0.20703 0.050781 0.42188-0.03125 0.54688-0.20312l0.72266-1.0078c0.058594-0.085938 0.15234-0.14063 0.25781-0.15234 0.10156-0.011719 0.20703 0.019531 0.28516 0.089844l1.1016 0.98047c0.0625 0.054688 0.066407 0.14844 0.011719 0.21094l-0.50391 0.58203c-0.37891 0.4375-0.41797 1.0703-0.097656 1.5508l0.55859 0.83594c0.046875 0.074218 0.054688 0.17188 0.019531 0.25391-0.039062 0.082031-0.11719 0.14062-0.20703 0.15234-0.38672 0.046875-0.67188 0.38281-0.65625 0.77344 0.011719 0.32422-0.16406 0.62891-0.44922 0.78125-0.26562 0.14453-0.42969 0.41797-0.4375 0.71875l-0.007812 0.44922c-0.003906 0.25-0.125 0.48438-0.32812 0.62891l-0.32031 0.22656c-0.28125 0.19922-0.66406 0.17188-0.91016-0.070313l-0.17578-0.17188c-0.21875-0.21094-0.54688-0.26562-0.82031-0.13281l-0.19141 0.09375c-0.0625 0.03125-0.13672 0.03125-0.19922 0.003906s-0.11328-0.078125-0.13281-0.14453c-0.035156-0.10547-0.12891-0.17578-0.23828-0.17578h-0.59766c-0.10156 0-0.19922-0.039062-0.27344-0.11328-0.070312-0.074219-0.10938-0.17578-0.10547-0.28125l0.023438-0.71484v0.003906c0.003906-0.066406-0.023438-0.12891-0.066407-0.17578-0.046874-0.046874-0.10937-0.074218-0.17578-0.074218-0.16797 0-0.3125-0.125-0.33984-0.29297l-0.24219-1.4492c-0.035156-0.22266 0.042969-0.44922 0.21094-0.60156 0.15625-0.14453 0.39062-0.17969 0.58203-0.085938z"/>
  <path fill="white" d="m69 76.254 0.19141 0.25391 0.003906-0.003906c0.042969 0.0625 0.11328 0.10156 0.19141 0.10547 0.074219 0.003906 0.14844-0.023437 0.20312-0.074219 0.17188-0.15234 0.38281-0.25391 0.60938-0.28906l0.58203-0.11719v-0.003906c0.074219-0.011719 0.14844 0.003906 0.20703 0.054688 0.058594 0.046874 0.09375 0.11719 0.09375 0.19141 0 0.046875-0.023437 0.089844-0.0625 0.11328l-0.87891 0.58984v0.003906c-0.16797 0.10938-0.21875 0.33203-0.12109 0.50391l0.51562 0.90625c0.17188 0.29688 0.21094 0.64844 0.10547 0.97656l-0.085937 0.27734c-0.039063 0.12891-0.21484 0.14062-0.27344 0.019531l-0.82422-1.7578v-0.003906c-0.046875-0.10156-0.16016-0.15234-0.26953-0.125-0.14453 0.039062-0.25 0.16406-0.26562 0.3125l-0.16797 1.5625v0.003906c-0.007812 0.089844-0.054687 0.16797-0.12891 0.22266-0.070312 0.050782-0.16406 0.070313-0.25 0.050782-0.066406-0.015625-0.12109-0.058594-0.14844-0.12109-0.027343-0.0625-0.023437-0.13281 0.011719-0.19141 0.10156-0.18359 0.16797-0.38672 0.1875-0.60156 0.023438-0.24609-0.070312-0.48828-0.25-0.65625-0.16406-0.14844-0.23438-0.37109-0.1875-0.58594l0.46484-2.1016c0.066406-0.30859 0.23047-0.58594 0.46094-0.80078 0.10938-0.097656 0.25391-0.14844 0.40234-0.13672l1.5273 0.125c0.31641 0.023438 0.625-0.085937 0.85156-0.30859l0.3125-0.30859v0.003906c0.078126-0.078125 0.20313-0.058594 0.25781 0.035156 0.066406 0.11719 0.054687 0.26172-0.03125 0.36719l-0.36719 0.46094c-0.125 0.15625-0.31641 0.24609-0.51953 0.23438l-2.1523-0.066406h0.003907c-0.11328-0.003906-0.21094 0.070312-0.23828 0.17578l-0.054688 0.21094v0.003906c-0.046875 0.16797-0.011719 0.34766 0.09375 0.48828z"/>
  <path fill="white" d="m73.801 75.957 0.066407-1.6445c0.003906-0.125 0.16016-0.17578 0.23828-0.082031 0.12109 0.14453 0.29688 0.22656 0.48438 0.22656 0.10938 0 0.19922 0.089844 0.19922 0.19922v0.62109c0 0.066406-0.027343 0.12891-0.078124 0.17188-0.050782 0.042969-0.11719 0.066406-0.17969 0.058593-0.12891-0.015624-0.23438 0.085938-0.22656 0.21484l0.019531 0.28906v-0.003907c0.003906 0.070313-0.023438 0.14063-0.074219 0.19141-0.054688 0.046875-0.125 0.070312-0.19531 0.0625-0.14844-0.019531-0.26172-0.15234-0.25391-0.30469z"/>
  <path fill="white" d="m73.004 78.039h0.26953c0.17187 0 0.32031 0.125 0.34766 0.29297l0.011718 0.058594c0.023438 0.12891-0.074218 0.24609-0.20312 0.24609h-0.097657c-0.24219 0-0.44922-0.17578-0.48438-0.41406-0.015625-0.097656 0.058594-0.18359 0.15625-0.18359z"/>
  <path fill="white" d="m74.312 77.902h1.1406c0.13672 0 0.26172 0.066406 0.33594 0.17969l0.22266 0.33203c0.066406 0.097657-0.003907 0.22266-0.11719 0.22266h-0.042969c-0.125 0-0.24609-0.046875-0.33203-0.13672-0.097656-0.10156-0.23438-0.16016-0.37891-0.16016h-0.76172c-0.074218 0-0.14453-0.035156-0.19141-0.089844-0.046875-0.058594-0.0625-0.13672-0.046875-0.20703 0.015625-0.082031 0.085937-0.14062 0.17188-0.14062z"/>
  <path fill="white" d="m78.184 80.723c-0.070313-0.089844 0.023437-0.16406 0.074218-0.25l0.28516-0.44922c0.039062-0.058594 0.125-0.042969 0.13672 0.023437l0.054687 0.27344c0.023437 0.11328 0.003906 0.22656-0.050781 0.32813l-0.085938 0.16016c-0.058594 0.10938-0.20703 0.12891-0.29297 0.039062z"/>
  <path fill="white" d="m75.961 81.871c0-0.17969 0.09375-0.34766 0.24609-0.44922l0.23047-0.15234v0.003907c0.058594-0.039063 0.13672 0.003906 0.13672 0.074218v0.11328c0 0.10937-0.050781 0.21484-0.14062 0.27734l-0.29688 0.21875v0.003907c-0.074219 0.050781-0.17578 0-0.17578-0.089844z"/>
  <path fill="white" d="m70.426 84.082 0.11328 0.050781c0.070313 0.035157 0.16016 0.023438 0.22266-0.023437l0.45703-0.34375c0.11719-0.085937 0.21094-0.19531 0.28125-0.32031 0.0625-0.10547 0.14844-0.19531 0.25-0.26172l0.44922-0.28906 0.003906-0.003906c0.16406-0.10547 0.34375-0.18359 0.53516-0.23828l0.23438-0.0625h-0.003906c0.13672-0.035156 0.24219-0.14062 0.28125-0.27344 0.03125-0.10938-0.066406-0.21484-0.17969-0.19141l-0.65234 0.15234c-0.16016 0.035156-0.3125 0.10156-0.44922 0.1875l-1.5781 1.3828v-0.003906c-0.074219 0.070312-0.058594 0.19531 0.035156 0.23828z"/>
  <path fill="white" d="m68.367 83.621c-0.058594-0.13281-0.18359-0.22656-0.32813-0.25l-0.25781-0.039063c-0.09375-0.015625-0.16016-0.09375-0.16016-0.1875 0-0.0625 0.027344-0.12109 0.070312-0.16016 0.042969-0.042969 0.10547-0.0625 0.16797-0.058594l0.50391 0.039063c0.10938 0.007812 0.21484 0.054687 0.29297 0.13281l0.125 0.12109c0.085938 0.082031 0.13672 0.19922 0.13672 0.31641 0 0.125-0.097657 0.23047-0.22266 0.23828l-0.070312 0.003906c-0.10938 0.007812-0.21094-0.054688-0.25781-0.15625z"/>
  <path fill="white" d="m71.738 81.938h-1.3711c-0.14063 0-0.27734 0.027344-0.40625 0.078125l-0.42578 0.16406c-0.125 0.046874-0.26953 0.023437-0.37109-0.0625-0.089843-0.070313-0.20312-0.10156-0.31641-0.082032l-0.33594 0.0625v0.003906c-0.09375 0.015626-0.16797 0.089844-0.1875 0.18359-0.015625 0.058594 0 0.125 0.035156 0.17578 0.035156 0.050781 0.09375 0.085937 0.15625 0.089843l0.42969 0.046875-0.003906 0.003906c0.18359 0.019532 0.36719 0.011719 0.54297-0.03125l0.44141-0.097656c0.14453-0.03125 0.29297-0.054687 0.4375-0.066406l1.3828-0.11328h0.003906c0.089844-0.007813 0.16016-0.082031 0.16406-0.17188 0.003907-0.097656-0.078124-0.18359-0.17578-0.18359z"/>
  <path fill="white" d="m67.762 82.242c0-0.13281-0.10938-0.23828-0.24219-0.23828h-2.7109c-0.074219 0-0.13672-0.054687-0.14453-0.12891-0.019531-0.13672-0.13281-0.23828-0.26953-0.23828h-0.58594c-0.085938 0-0.15625-0.070313-0.15625-0.16016 0-0.10156 0.078125-0.18359 0.17969-0.19141l0.52344-0.035156-0.003907 0.003906c0.074219-0.003906 0.12891-0.070312 0.125-0.14453-0.007812-0.11719-0.10937-0.20703-0.23047-0.20703l-0.94922 0.019531v0.003906c-0.26172-0.007812-0.52344-0.0625-0.76562-0.16016l-0.24609-0.097656c-0.097656-0.039063-0.21094 0.011719-0.23828 0.11328-0.03125 0.097656-0.12109 0.16797-0.22266 0.17188l-0.85938 0.027344h0.003906c-0.12891 0.003906-0.24609-0.078125-0.28125-0.20312-0.03125-0.10938-0.13281-0.18359-0.24609-0.18359h-0.17188c-0.11719 0-0.21484-0.082031-0.23828-0.19531-0.023438-0.11719-0.12891-0.19922-0.25-0.19141l-0.60156 0.039063h0.003906c-0.15234 0.011718-0.28516 0.089844-0.36719 0.21875l-0.10156 0.16016h-0.003906c-0.058594 0.089844-0.039063 0.20703 0.039062 0.27734l0.074219 0.066406h0.003906c0.097656 0.089844 0.17188 0.19922 0.20703 0.32812 0.050782 0.16016 0.19141 0.27344 0.35938 0.28516l1.7148 0.10938c0.21484 0.011719 0.42188 0.089844 0.59375 0.21875 0.085937 0.0625 0.17969 0.10156 0.28516 0.11719l1.9844 0.29297 0.76953 0.12891 1.4062 0.25391-0.003907-0.003906c0.21094 0.039062 0.42578 0.027343 0.62891-0.035157l0.14453-0.042968h0.003906c0.10156-0.03125 0.20703-0.050782 0.3125-0.058594l0.24609-0.019531c0.15625-0.011719 0.27734-0.14062 0.28125-0.30078z"/>
  <path fill="white" d="m57.402 75.699c0.027344-0.22656-0.039063-0.45312-0.17969-0.63281l-0.45703-0.5c-0.078125-0.082031-0.1875-0.12891-0.30469-0.12109-0.17578 0.015626-0.33594-0.097656-0.38281-0.26562-0.035156-0.10938-0.12891-0.1875-0.24219-0.19531l-0.17188-0.011719v0.003906c-0.14062-0.011718-0.28125-0.050781-0.40625-0.11719l-0.25-0.13672h0.003907c-0.17578-0.097656-0.30469-0.26172-0.35156-0.45703-0.054687-0.22656-0.21484-0.41016-0.43359-0.49609l-0.13672-0.050781h0.003906c-0.22266-0.089844-0.40234-0.25781-0.49609-0.47656-0.17969-0.40625-0.54688-0.70703-0.98047-0.80078l-0.66406-0.14453h-0.10938v-0.003906c-0.10547 0-0.19922 0.054687-0.25391 0.14453-0.054688 0.089844-0.0625 0.19922-0.011719 0.29297l0.31641 0.62109c0.082031 0.16016 0.22656 0.28125 0.40234 0.32422 0.39062 0.10156 0.71484 0.37891 0.87109 0.75391l0.03125 0.074218-0.003907-0.003906c0.089844 0.20703 0.25 0.37891 0.45313 0.47266 0.29297 0.14062 0.50391 0.40625 0.57031 0.72266l0.058594 0.27734v-0.003906c0.058594 0.27734 0.17969 0.53516 0.35156 0.75781l0.42188 0.54297h-0.003906c0.21875 0.28516 0.38281 0.60547 0.48438 0.94922 0.082031 0.27734 0.21875 0.53906 0.41016 0.75781l0.65625 0.76953 0.94922 1.1445c0.11328 0.13281 0.27734 0.21094 0.45312 0.21094h0.48438c0.15625 0 0.28906-0.11328 0.30859-0.26953l0.17188-1.3789h-0.003906c0.023437-0.19531 0.18359-0.34766 0.37891-0.36328 0.13672-0.011719 0.25391-0.10938 0.28516-0.24219l0.03125-0.12891v-0.003906c0.011719-0.046875-0.023438-0.089844-0.070312-0.09375-0.17969-0.015625-0.32422-0.15234-0.35156-0.32812-0.027344-0.19141-0.18359-0.33203-0.375-0.34375-0.16406-0.007813-0.32422 0.039062-0.45703 0.13281l-0.058594 0.039063c-0.11328 0.082031-0.27344 0.003906-0.28516-0.13281l-0.015625-0.1875h0.003906c-0.015625-0.19141-0.17188-0.33984-0.36328-0.34375-0.082032 0-0.16016-0.035156-0.21875-0.09375-0.054688-0.058593-0.085938-0.14062-0.082032-0.22266z"/>
  <path fill="white" d="m71.988 51.02-0.55469-0.89844 0.003906-0.003906c-0.1875-0.30078-0.15234-0.69141 0.085938-0.95703l0.72266-0.80078c0.20703-0.23047 0.5-0.36719 0.8125-0.37891l1.0586-0.03125c0.17969-0.003907 0.32812-0.15625 0.32812-0.33984v-0.94531c0-0.11328 0.09375-0.20703 0.21094-0.20703 0.097656 0 0.17969 0.078125 0.17969 0.17969v0.13281c0 0.09375 0.11328 0.14062 0.17969 0.074219l0.40234-0.38672v0.003907c0.19531-0.1875 0.30469-0.44531 0.30469-0.71094v-0.54297c0-0.25-0.078125-0.49609-0.21875-0.70312l-0.25-0.36719h0.003906c-0.12891-0.1875-0.12109-0.4375 0.015626-0.61719 0.089843-0.11719 0.21875-0.19531 0.35937-0.21875 0.10156-0.015625 0.19922 0.046875 0.22656 0.14453 0.082031 0.3125 0.26562 0.58594 0.52344 0.77734l0.24609 0.18359c0.28516 0.21484 0.44141 0.56641 0.40625 0.92188l-0.058594 0.62891v0.003907c-0.015624 0.16406 0.027344 0.32812 0.12109 0.46484 0.10547 0.15625 0.16406 0.33984 0.16406 0.52734 0 0.23438 0.089843 0.46094 0.25 0.63672 0.10156 0.10938 0.12891 0.26562 0.074219 0.40234-0.12109 0.31641-0.40625 0.53516-0.73828 0.57422l-1.0391 0.11719c-0.26562 0.03125-0.48828 0.21094-0.57422 0.46094l-0.058594 0.17578v-0.003906c-0.019531 0.058594-0.0625 0.10547-0.11719 0.12891-0.054688 0.027344-0.11719 0.027344-0.17578 0.003907-0.14453-0.058594-0.25391-0.1875-0.28906-0.33984l-0.046875-0.19531c-0.046875-0.1875-0.22266-0.3125-0.41797-0.28906l-0.25 0.03125c-0.39844 0.050781-0.77734 0.19922-1.1055 0.43359l-0.23438 0.16797h0.003907c-0.11328 0.078126-0.14062 0.23047-0.0625 0.34375l0.1875 0.26953h0.003906c0.097656 0.14453 0.15234 0.3125 0.16016 0.48438l0.011719 0.34766c0.007812 0.25781-0.18359 0.48047-0.4375 0.51562-0.16797 0.019531-0.32812-0.058594-0.41797-0.19922z"/>
  <path fill="white" d="m86.02 26.004-0.29688-0.21094v-0.003907c-0.089844-0.0625-0.0625-0.19531 0.039063-0.22266l0.11719-0.03125h0.003906c0.11328-0.03125 0.18359-0.14453 0.15625-0.25781-0.011718-0.054688-0.050781-0.097656-0.10156-0.11719l-0.92969-0.3125h-0.003906c-0.50391-0.16797-1.0312-0.26953-1.5664-0.29297l-0.42969-0.019532c-0.25-0.011718-0.49219-0.078125-0.71484-0.19141-0.33594-0.17578-0.69141-0.3125-1.0586-0.40625l-3.6562-0.85547c-0.67578-0.16016-1.3672-0.26172-2.0625-0.30469l-2.668-0.27734v-0.003906c-0.054687-0.003906-0.082031 0.066406-0.035156 0.097656l0.52344 0.35156c0.089843 0.0625 0.14062 0.16406 0.14062 0.26953 0.003907 0.10156-0.078124 0.17969-0.17578 0.17578-0.28516 0-0.55859-0.078125-0.80078-0.23047l-0.89453-0.5625c-0.078125-0.046875-0.17578-0.054687-0.26562-0.019531-0.085938 0.039063-0.14844 0.11719-0.16406 0.21094-0.011719 0.097657-0.097656 0.17188-0.19531 0.17188l-3.457-0.12109c-0.22266 0-0.42969-0.11328-0.55469-0.30078-0.16797-0.24609-0.42969-0.41797-0.72656-0.47266l-0.18359-0.039062c-0.31641-0.070313-0.64062-0.09375-0.96094-0.074219l-1.7422 0.10156c-0.57422 0.035156-1.1445-0.058594-1.6797-0.27344l-1.0742-0.42969h0.003907c-0.25-0.097656-0.50781-0.16797-0.76953-0.21094l-0.66797-0.10547c-0.38281-0.0625-0.77344-0.089844-1.1602-0.089844l-2.4531 0.011719c-0.14844 0-0.21484 0.1875-0.10156 0.28125l0.13281 0.10547c0.11328 0.09375 0.042968 0.27734-0.10156 0.27344l-2.5117-0.085938c-0.11719-0.003906-0.23438-0.027344-0.33984-0.074219l-0.042968-0.015625c-0.078125-0.035156-0.16797-0.023437-0.23828 0.023438-0.070312 0.046875-0.11328 0.125-0.11328 0.20703v0.16406c0 0.125-0.13281 0.20312-0.23828 0.14453l-2.5938-1.4023c-0.33203-0.17969-0.69531-0.28125-1.0703-0.30078l-1.5391-0.082032v-0.003906c-0.10156-0.003906-0.16016 0.10938-0.10156 0.19141l0.027344 0.035157h-0.003906c0.082031 0.10938 0 0.26172-0.13672 0.25781l-2.0352-0.054687v0.003906c-0.078125-0.003906-0.13672-0.070312-0.13672-0.14844-0.003906-0.10156-0.09375-0.18359-0.19922-0.18359l-5.25 0.30078v0.003906c-0.10938 0.003906-0.15625-0.14453-0.0625-0.20312l1.5312-0.94141c0.070312-0.042969 0.11328-0.12109 0.10937-0.20312-0.003906-0.082031-0.050781-0.15625-0.125-0.19531l-0.76172-0.38672c-0.32812-0.16797-0.69531-0.25-1.0664-0.23828l-1.1914 0.039062c-0.41016 0.011719-0.82031-0.042969-1.2109-0.17188l-1.3086-0.42578c-0.16797-0.054688-0.35547-0.046875-0.51953 0.023437l-0.17188 0.074219v-0.003906c-0.070313 0.03125-0.125 0.09375-0.14453 0.16797-0.023437 0.074219-0.007812 0.15234 0.035157 0.21484 0.078125 0.10547 0.011719 0.25-0.11719 0.26562l-4.2227 0.45703c-0.24219 0.027344-0.48047 0.089844-0.70312 0.1875l-0.58594 0.25391h-0.003906c-0.14844 0.066406-0.14844 0.28125 0.003906 0.34375l0.3125 0.13281h-0.003906c0.089844 0.039063 0.066406 0.17188-0.03125 0.17578l-2.207 0.10156c-0.125 0.007813-0.17188 0.16016-0.078125 0.23438l0.12891 0.10156c0.082032 0.0625 0.12891 0.16406 0.12109 0.26563-0.007812 0.12109-0.11328 0.20703-0.23438 0.1875l-0.81641-0.12109c-0.17188-0.027344-0.34766 0.042968-0.45703 0.18359l-0.29297 0.37891c-0.074219 0.09375-0.22656 0.066406-0.26172-0.046875l-0.10156-0.32031c-0.042969-0.13672-0.12109-0.26172-0.22266-0.35938l-0.10547-0.10156 0.003907-0.003907c-0.066407-0.042968-0.15234-0.027343-0.19922 0.035157-0.089844 0.12109 0.21094 0.44141 0.11719 0.54688-0.039063 0.046875-0.097657 0.070312-0.22266 0.066406h0.003907c-0.082032-0.003906-0.15625 0.058594-0.15625 0.14062v0.046875h-0.003907c-0.003906 0.12891 0.066407 0.24609 0.17969 0.30469l0.40625 0.21484v0.003907c0.10938 0.058593 0.17188 0.17578 0.16406 0.29687-0.019531 0.23438 0.0625 0.46094 0.22656 0.625l0.42969 0.42969v-0.003906c0.13281 0.13281 0.28516 0.24219 0.45312 0.32031 0.11328 0.054688 0.18359 0.16406 0.18359 0.28906 0 0.24609-0.097656 0.48047-0.27344 0.65234l-0.24219 0.23828-0.003906 0.003906c-0.11719 0.11328-0.27734 0.17578-0.44141 0.16797l-0.23828-0.011719c-0.11719-0.003906-0.17969-0.13672-0.10938-0.23047l0.28516-0.38672v-0.003906c0.11719-0.16406 0.18359-0.35938 0.18359-0.5625v-0.011718c0-0.21875-0.16016-0.40234-0.37109-0.43359h-0.011718v-0.003906c-0.1875-0.027344-0.34375-0.14453-0.42578-0.31641l-0.46094-0.96484h-0.003906c-0.074219-0.15625-0.21094-0.28125-0.375-0.34375-0.089844-0.03125-0.14844-0.11328-0.15234-0.20703 0 0-0.007813-0.1875-0.015625-0.38281-0.011719-0.26172-0.21875-0.46875-0.48047-0.47656h-0.011719c-0.1875-0.007812-0.36719-0.066406-0.52734-0.16797l-0.17578-0.10547c-0.14844-0.089844-0.33594-0.082032-0.47266 0.019531l-0.007812 0.003906v0.003907c-0.19141 0.14062-0.30469 0.36719-0.30469 0.60547v0.011719-0.003906c0.019531 0.19922-0.046875 0.39453-0.18359 0.53906l-0.14063 0.097657 0.003907 0.003906c-0.066407 0.046875-0.10156 0.125-0.089844 0.20703 0.015625 0.082031 0.070313 0.14844 0.14844 0.17188l0.058594 0.019531c0.13281 0.042969 0.23047 0.15625 0.25 0.29297l0.039063 0.25c0.015625 0.11328 0.12109 0.19531 0.23828 0.18359 0.20703-0.015625 0.41406 0.042968 0.58203 0.16797l0.26562 0.19922v-0.003906c0.089844 0.070313 0.13281 0.19141 0.10156 0.30078-0.015625 0.058594-0.058594 0.10938-0.11328 0.13672-0.054688 0.027344-0.11719 0.03125-0.17578 0.011719l-2.1992-0.78906c-0.15625-0.054687-0.3125-0.10156-0.47656-0.13281l-2.2656-0.44922c-0.10938-0.019531-0.20703 0.066406-0.20312 0.17578 0.007813 0.078125 0.054687 0.14453 0.125 0.17969l1.0898 0.49219h-0.003907c0.10938 0.046875 0.125 0.19922 0.027344 0.26562l-0.19922 0.14062c-0.066407 0.046875-0.15234 0.0625-0.23438 0.039063-0.078124-0.023438-0.14453-0.082031-0.17578-0.16016-0.050781-0.12891-0.1875-0.19922-0.32031-0.16797l-1.9688 0.46094c-0.0625 0.015625-0.12891 0-0.17969-0.039062-0.050781-0.042969-0.082031-0.10547-0.082031-0.16797 0-0.078125-0.035156-0.14844-0.097656-0.19141-0.0625-0.046875-0.14062-0.058594-0.21484-0.035156l-2.3398 0.78125 0.003906 0.003906c-0.16406 0.054687-0.27344 0.20312-0.27344 0.375 0 0.058594-0.019531 0.11328-0.0625 0.15234-0.042969 0.042968-0.097656 0.0625-0.15625 0.0625l-0.54297-0.011719c-0.10156-0.003907-0.19922-0.042969-0.27734-0.10547l-0.058593-0.050781c-0.11328-0.09375-0.089844-0.26562 0.039062-0.33203l0.23047-0.11719v0.003906c0.12109-0.0625 0.13281-0.23828 0.019531-0.3125-0.19141-0.12891-0.41406-0.19922-0.64453-0.20703l-0.20703-0.003906c-0.12109-0.003907-0.21484 0.097656-0.20312 0.21484l0.16016 1.1367c0.019531 0.13672-0.125 0.23828-0.24609 0.17578l-0.22656-0.10937c-0.17578-0.085938-0.38281-0.078126-0.55078 0.023437l-0.66797 0.39844c-0.054688 0.035157-0.09375 0.089844-0.10547 0.15234s0 0.125 0.039063 0.17969l0.023437 0.035156v-0.003906c0.050781 0.070312 0.058594 0.16406 0.023437 0.24219-0.039062 0.082031-0.12109 0.12891-0.20703 0.13281l-0.22266 0.003906c-0.17578 0.003906-0.34766-0.046875-0.48828-0.15234l-0.13672-0.10156c-0.10938-0.082032-0.25391-0.09375-0.375-0.035156l-0.054687 0.027343c-0.066407 0.035157-0.11328 0.10156-0.11719 0.17578-0.003906 0.074219 0.03125 0.14844 0.09375 0.19141l0.30859 0.21094h-0.003906c0.085937 0.058594 0.0625 0.1875-0.039063 0.21484-0.28125 0.0625-0.57812 0.039062-0.84766-0.070312l-0.09375-0.039063h-0.003907c-0.30859-0.14062-0.55469-0.39453-0.69141-0.71094l-0.003906-0.011719c-0.085938-0.23047-0.24219-0.42578-0.44531-0.5625l-0.27344-0.17969c-0.16406-0.10938-0.0625-0.36719 0.13281-0.33203l2.2422 0.40625h0.003906c0.28125 0.054688 0.57031 0.019531 0.83203-0.089844l0.375-0.15625v-0.003906c0.15625-0.0625 0.25781-0.21484 0.25781-0.38672 0-0.19141-0.12109-0.35938-0.30469-0.41797l-4.0859-1.3711c-0.39844-0.13281-0.83594-0.097657-1.207 0.097656l-0.84766 0.44531c-0.085938 0.042968-0.13672 0.13281-0.13281 0.23047 0 0.09375 0.058594 0.17969 0.14453 0.21875l0.20312 0.09375h0.003907c0.074218 0.035156 0.13281 0.10547 0.14453 0.19141 0.015625 0.082032-0.011719 0.16797-0.070313 0.22656l-0.007812 0.007813c-0.070313 0.070312-0.10547 0.16797-0.10156 0.26953 0.007813 0.097656 0.058594 0.19141 0.13672 0.25391l0.066406 0.050781h0.003906c0.22656 0.17188 0.33203 0.46094 0.26563 0.73828-0.019532 0.074218-0.003907 0.15625 0.042968 0.21484l0.83594 1.0898c0.25781 0.33594 0.23438 0.8125-0.054688 1.125l-0.57031 0.60938c-0.125 0.13672-0.23438 0.29297-0.31641 0.46094-0.21875 0.44922-0.28906 0.95312-0.19922 1.4414l0.23438 1.2969c0.050781 0.30078 0.29688 0.53125 0.59766 0.57031 0.1875 0.023438 0.40625 0.054688 0.60156 0.078125v0.003906c0.35156 0.042969 0.62109 0.33203 0.64063 0.68359v0.011719h0.003906c0.011718 0.17578 0.09375 0.33984 0.22656 0.44922l0.72656 0.60547h0.003906c0.082031 0.070313 0.039063 0.20703-0.070313 0.21484l-0.26172 0.019532c-0.070313 0.003906-0.13672 0.042968-0.17188 0.10547-0.035157 0.058594-0.039063 0.13281-0.011719 0.19922l0.10156 0.22656c0.074219 0.16406 0.24219 0.26562 0.42188 0.25781l0.64844-0.03125v-0.003906c0.36719-0.015625 0.71484 0.15625 0.91797 0.45703l0.28906 0.42578c0.19531 0.28125 0.48438 0.48047 0.82031 0.55859l1.8281 0.42578c0.32422 0.078125 0.55859 0.35938 0.57031 0.69531 0.015625 0.41406-0.125 0.82031-0.39453 1.1367l-0.49219 0.57813c-0.20313 0.23828-0.29297 0.55469-0.24609 0.86328 0.050781 0.3125 0.23047 0.58594 0.49609 0.75l1.9883 1.2422h0.003906c0.22656 0.14062 0.375 0.38281 0.40234 0.64844v0.011718c0.019531 0.19922-0.066407 0.39844-0.23047 0.51953l-0.019531 0.011718v0.003907c-0.22266 0.16797-0.49609 0.25781-0.77734 0.25781h-0.71875l0.003906 0.003907c-0.49219-0.003907-0.97266-0.12109-1.4102-0.34766l-0.39453-0.19531v-0.003907c-0.34375-0.17187-0.71875-0.26562-1.1016-0.28125h-0.019531v-0.003906c-0.49609-0.019531-0.98438 0.12891-1.3867 0.42578l-0.015625 0.011718h0.003906c-0.23828 0.17578-0.52734 0.26953-0.82422 0.26953h-0.45312c-0.28906 0-0.57812-0.074219-0.83203-0.21484-0.11328-0.0625-0.23438-0.13281-0.35547-0.19922-0.15234-0.085937-0.32812-0.10156-0.49219-0.050781-0.16406 0.050781-0.30078 0.16406-0.37891 0.32031l-0.007813 0.015625c-0.23047 0.46094-0.27734 0.99609-0.12891 1.4883l0.17188 0.57813v0.003906c0.16016 0.52344 0.5 0.97266 0.96484 1.2656l0.69531 0.43359c0.13672 0.085938 0.29687 0.13672 0.46094 0.13672l0.16406 0.003907c0.18359 0.003906 0.35547-0.078126 0.46094-0.22656 0.13281-0.18359 0.37891-0.24609 0.57812-0.14453l0.63281 0.3125c0.26563 0.13281 0.57031 0.15625 0.85547 0.074218l0.82422-0.24219c0.125-0.039063 0.24609-0.097656 0.35156-0.17578 0.070313-0.054688 0.16797-0.0625 0.24609-0.019532 0.082032 0.039063 0.12891 0.12109 0.12891 0.21094v0.019531c0 0.88672-0.13672 1.7656-0.40234 2.6094l-0.22266 0.70312c-0.12891 0.41406-0.10547 0.85938 0.066407 1.2539l0.14453 0.32812c0.070312 0.16016 0.10938 0.33203 0.11719 0.50391l0.011718 0.41797c0.007813 0.19531 0.070313 0.38672 0.17969 0.55078l2.4648 3.6055c0.25391 0.36719 0.41016 0.79297 0.46094 1.2344l0.058594 0.52344v0.003906c0.039062 0.35938 0.26172 0.67578 0.58594 0.83984 0.39844 0.19922 0.73047 0.51172 0.94531 0.90234 0.25781 0.46094 0.60547 1.0938 0.83984 1.5156v0.003906c0.16797 0.30078 0.26563 0.64062 0.27734 0.98828v0.015625c0.015625 0.4375 0.10938 0.86719 0.27734 1.2734l0.28125 0.67969c0.13672 0.33203 0.51562 0.48828 0.84375 0.35547 0.54688-0.22266 1.3945-0.57031 2.2227-0.90625 1.6953-0.69141 3.3125-1.5664 4.8203-2.6094l0.050781-0.035156h-0.003906c1.0156-0.69922 1.8242-1.6562 2.3555-2.7695l0.14063-0.29687c0.20703-0.44141 0.10937-0.96484-0.24219-1.3008l-0.015625-0.015625v0.003907c-0.25-0.23438-0.56641-0.39063-0.90625-0.4375l-0.085937-0.011719v-0.003907c-0.26953-0.039062-0.51563-0.16406-0.70313-0.35547l-0.007812-0.007813v-0.003906c-0.16797-0.16797-0.28125-0.38672-0.32422-0.62109l-0.097656-0.51953v-0.003906c-0.035156-0.17578-0.26172-0.22656-0.36719-0.082032l-0.59375 0.83203v0.003906c-0.17578 0.24219-0.45313 0.38281-0.75 0.38281h-0.875c-0.10547 0-0.20703-0.039062-0.28516-0.11328-0.074219-0.078125-0.11328-0.17969-0.11328-0.28516v-0.59766 0.003906c0-0.14453-0.10547-0.26172-0.24609-0.28125-0.25-0.035156-0.44531-0.23828-0.46484-0.49219v-0.011719c-0.007812-0.078125-0.042968-0.15234-0.10547-0.20312-0.0625-0.054688-0.14062-0.078125-0.21875-0.070313l-0.023438 0.003907c-0.26172 0.023437-0.51172-0.097657-0.65234-0.31641-0.125-0.19531-0.28125-0.4375-0.40234-0.625l-0.003907-0.003906c-0.12891-0.19922-0.34766-0.32812-0.58984-0.33984h-0.011719c-0.25391-0.011719-0.5-0.10156-0.70312-0.25781l-0.039063-0.03125c-0.20312-0.15625-0.27344-0.42969-0.17187-0.66797l0.003906-0.011719c0.082031-0.19531 0.26562-0.32422 0.47656-0.33984l0.74609-0.054688v-0.003906c0.5625-0.039063 1.0977 0.24219 1.3828 0.72656l0.22656 0.38281c0.25781 0.44531 0.64062 0.80469 1.0977 1.0391l1.0781 0.55469c0.28906 0.14844 0.63281 0.15234 0.92969 0.015625l0.28906-0.13672c0.26953-0.125 0.58594-0.015625 0.71875 0.25l0.13281 0.26953c0.125 0.25391 0.36328 0.43359 0.64062 0.48047l1.7656 0.30469h0.003906c0.52734 0.09375 1.0625 0.10938 1.5938 0.050782l1.8633-0.21094c0.29297-0.03125 0.57812 0.10547 0.73047 0.35938 0.25781 0.42578 0.60156 0.79688 1.0039 1.0938l0.62109 0.45312c0.16016 0.11719 0.36719 0.16016 0.5625 0.11719l0.29297-0.066406c0.074218-0.019532 0.15234 0.027343 0.17578 0.10156 0.015625 0.058594 0.007813 0.12109-0.023437 0.17188-0.03125 0.054687-0.085938 0.089844-0.14453 0.10156l-0.51953 0.10156c-0.12891 0.023438-0.17578 0.18359-0.082031 0.27344l0.86328 0.83594h0.003906c0.16406 0.16016 0.41406 0.19531 0.61719 0.085937l0.25781-0.13672v-0.003906c0.18359-0.09375 0.30078-0.27344 0.32422-0.48047l0.039062-0.37891h-0.003906c0.007813-0.089843 0.12109-0.12891 0.18359-0.0625 0.13281 0.14063 0.21094 0.32422 0.21484 0.51563l0.011718 0.5625c0.007813 0.375 0.054688 0.75 0.13672 1.1172l0.36328 1.6016c0.12109 0.54297 0.33594 1.0625 0.62891 1.5352l0.33594 0.53906c0.19531 0.30859 0.30859 0.66016 0.33203 1.0234 0.011718 0.20312 0.074218 0.40234 0.18359 0.57422l0.83594 1.3438c0.12891 0.20313 0.19531 0.44141 0.19531 0.67969 0 0.32422 0.10938 0.63672 0.30859 0.89062l0.38672 0.48828v-0.003906c0.074218 0.09375 0.21094 0.11719 0.30859 0.050781 0.15625-0.097656 0.25391-0.27344 0.25391-0.46094 0-0.125 0.070312-0.24219 0.18359-0.29688 0.21875-0.10938 0.38672-0.29688 0.47266-0.52344l0.054687-0.14844v-0.003906c0.046875-0.13281 0.16016-0.23047 0.29688-0.26953 0.097656-0.023437 0.16406-0.12109 0.14844-0.22266l-0.085938-0.66797h0.003906c-0.039062-0.28516-0.011718-0.57031 0.078126-0.84375 0.11328-0.33984 0.14844-0.70312 0.10547-1.0586l-0.14844-1.2969c-0.011719-0.085937 0.054687-0.16016 0.13672-0.16406l0.14062-0.007812c0.14063-0.007813 0.25-0.11719 0.26563-0.25391 0.011718-0.11719 0.10937-0.20703 0.22656-0.20703h0.14844c0.17969 0 0.32812-0.14062 0.33984-0.31641 0.007813-0.15234 0.070313-0.29297 0.17969-0.39453l2.4102-2.3281h-0.003906c0.14062-0.13672 0.22266-0.31641 0.23438-0.50781 0.019531-0.28906 0.19141-0.54297 0.45312-0.66406 0.20312-0.089843 0.42969-0.11328 0.64453-0.0625l0.44922 0.10547v-0.003906c0.17578 0.042969 0.35938 0.007813 0.50781-0.089844l0.5-0.33203v-0.003906c0.10938-0.070313 0.24219-0.09375 0.36719-0.0625 0.125 0.027344 0.23438 0.10938 0.29688 0.22266l0.78516 1.3906h-0.003906c0.078125 0.13281 0.21094 0.22266 0.36719 0.24609 0.15234 0.019531 0.27344 0.14062 0.29297 0.29297 0.027344 0.24219 0.14844 0.46484 0.33984 0.62109 0.23828 0.19531 0.375 0.49219 0.36328 0.80078l-0.03125 1.0664c-0.007813 0.24219 0.17578 0.44922 0.41797 0.46875 0.38281 0.027343 0.75781-0.09375 1.0508-0.33594l0.30859-0.25781c0.082031-0.066407 0.1875-0.089844 0.28516-0.066407 0.10156 0.023438 0.18359 0.097657 0.22266 0.19141 0.75781 1.8281 1.0938 3.8047 0.98047 5.7812-0.015625 0.3125 0.10156 0.62109 0.32422 0.84375 0.79297 0.79297 1.3008 1.8281 1.4414 2.9453 0.015625 0.10156 0.054687 0.20312 0.11719 0.28516l0.63281 0.85547c0.125 0.16797 0.28906 0.30859 0.48047 0.40234 0.33984 0.17188 0.625 0.44141 0.8125 0.77344 0.085937 0.15234 0.25 0.24609 0.42578 0.24609h0.29688c0.17969 0 0.32422-0.14062 0.32812-0.32031 0-0.13672-0.050781-0.26953-0.14453-0.37109l-0.50781-0.53516c-0.26562-0.28125-0.40234-0.66406-0.37891-1.0508l0.023437-0.33203c0.019532-0.28516-0.0625-0.56641-0.23437-0.79297l-1.0352-1.1641v0.003906c-0.11328-0.12891-0.27734-0.20312-0.45312-0.20312-0.19531 0-0.36328-0.13672-0.41016-0.32422l-0.27734-1.1875 0.003906-0.003907c-0.046874-0.19531-0.21875-0.33203-0.41797-0.33203-0.078125 0-0.15234-0.03125-0.19922-0.089844-0.050781-0.058594-0.074219-0.13281-0.0625-0.21094l0.36719-2.5898h-0.003906c0.019532-0.125 0.11328-0.22266 0.23438-0.24609 0.14453-0.03125 0.28125 0.058594 0.31641 0.19922l0.027343 0.11719h-0.003906c0.046875 0.19922 0.21094 0.34375 0.41016 0.36719 0.53516 0.066406 0.97266 0.45312 1.1016 0.97266 0.050781 0.21094 0.20312 0.38672 0.40625 0.46875 0.52734 0.21875 0.87891 0.73047 0.88672 1.3047 0.003907 0.10938 0.066407 0.20703 0.16406 0.25391 0.10156 0.046875 0.21875 0.035156 0.30078-0.035156l1.8555-1.5h0.003906c0.44531-0.36328 0.66406-0.93359 0.57422-1.5l-0.125-0.78125c-0.12891-0.81641-0.50781-1.5742-1.0781-2.168l-1.582-1.6406c-0.15625-0.16406-0.24609-0.375-0.25-0.59766-0.007813-0.375 0.14844-0.73438 0.43359-0.98047l0.70312-0.60938h-0.003906c0.20703-0.17969 0.47656-0.26172 0.75-0.23047 0.3125 0.035156 0.57031 0.26562 0.64453 0.57422l0.0625 0.27734v-0.003907c0.019531 0.085938 0.09375 0.14453 0.17969 0.14453h0.10156c0.11328 0 0.20703-0.082032 0.21875-0.19141l0.046874-0.38281v-0.003906c0.023438-0.19922 0.15625-0.37109 0.34375-0.4375l0.35547-0.13281h0.003907c0.54687-0.20312 1.1328-0.28516 1.7148-0.25h0.015625l0.003906 0.003906c0.17188 0.011719 0.33984-0.054687 0.45703-0.17969l2.0469-2.1523v-0.003906c0.22656-0.23828 0.38672-0.53125 0.46875-0.85156 0.16406-0.66797 0.46094-1.8672 0.62891-2.5781v0.003906c0.03125-0.14062 0-0.28516-0.085937-0.39453-0.089844-0.11328-0.22266-0.17578-0.36328-0.17578h-0.015625c-0.11328 0-0.21484-0.058593-0.26953-0.15625-0.054688-0.09375-0.058594-0.21484-0.003906-0.3125l0.015625-0.027343v0.003906c0.1875-0.34766 0.11719-0.77734-0.16797-1.0508l-1.0078-0.96484h0.003906c-0.10938-0.10547-0.16797-0.25-0.16797-0.39844-0.003906-0.17578-0.11719-0.33203-0.28125-0.39062l-0.49609-0.17188h-0.003906c-0.12109-0.042969-0.20703-0.15625-0.21094-0.28906-0.007813-0.16406 0.042968-0.32422 0.13672-0.46094l0.53125-0.74609h0.003906c0.09375-0.13281 0.24219-0.21875 0.40625-0.23047l0.16016-0.011719c0.097656-0.003906 0.17969-0.082031 0.19531-0.17969 0.019531-0.18359-0.10547-0.35156-0.28906-0.38281l-0.96875-0.17969c-0.19922-0.035156-0.39453 0.089844-0.44141 0.28906-0.03125 0.12109-0.14062 0.20703-0.26953 0.20703-0.25391-0.007812-0.46484-0.20703-0.47266-0.46484-0.007813-0.10156-0.09375-0.17969-0.19531-0.18359l-0.30078-0.007813c-0.23047-0.003906-0.44922-0.089844-0.62109-0.24219l-0.0625-0.054688c-0.089844-0.078125-0.13672-0.19531-0.125-0.3125 0.019531-0.14844 0.12891-0.26953 0.27734-0.29688l0.20703-0.039062h-0.003906c0.16797-0.035156 0.31641-0.12891 0.41406-0.26953l0.61328-0.85547c0.10938-0.14844 0.3125-0.19531 0.47266-0.10938 0.29688 0.16406 0.47266 0.48047 0.45703 0.81641l-0.023438 0.46875c-0.007812 0.12109 0.125 0.19922 0.22656 0.13281 0.20703-0.13281 0.51563-0.32813 0.76953-0.49219 0.29297-0.1875 0.66016-0.21875 0.98438-0.089844l0.011719 0.003906v0.003907c0.30859 0.125 0.51562 0.41406 0.52734 0.74609l0.011719 0.32031h0.003906c0.007813 0.19531 0.16016 0.34766 0.35156 0.35938h0.015625c0.37891 0.019531 0.73438 0.21094 0.95703 0.52344l0.003906 0.003906c0.23438 0.32422 0.40234 0.6875 0.5 1.0742l0.21094 0.82813c0.027343 0.097656 0.09375 0.17969 0.18359 0.22266 0.089844 0.042968 0.19531 0.046875 0.28516 0.003906l0.92188-0.41016v0.003906c0.19531-0.085938 0.28906-0.30469 0.21484-0.50391l-0.17188-0.47656h0.003907c-0.14844-0.41406-0.41406-0.77734-0.76172-1.0469l-1.2148-0.94531c-0.17578-0.13672-0.30469-0.32422-0.36719-0.53906-0.035157-0.11719 0.007812-0.24609 0.10156-0.32422l0.52734-0.44141c0.20703-0.17578 0.25-0.47656 0.10156-0.70312l-0.007813-0.011719c-0.15625-0.23828-0.16406-0.54297-0.019531-0.78516l0.011718-0.023437c0.21094-0.36719 0.67188-0.50391 1.0469-0.3125l0.070312 0.035156 0.003906 0.003906c0.19922 0.10156 0.44531 0.078125 0.625-0.058593l0.011719-0.011719h0.003906c0.41016-0.3125 0.72266-0.73828 0.90625-1.2227l0.007813-0.023437h0.003906c0.1875-0.5 0.30469-1.0234 0.34375-1.5547l0.003906-0.058594c0.074219-0.96875-0.20312-1.9297-0.77734-2.7109l-0.054687-0.070312h0.003906c-0.17969-0.24609-0.30078-0.53125-0.34766-0.82812l-0.007813-0.035157c-0.058593-0.34375-0.23828-0.65234-0.50781-0.875l-1.1094-0.90625c-0.23438-0.1875-0.52344-0.30078-0.82422-0.31641l-0.18359-0.011718 0.003907 0.003906c-0.0625-0.003906-0.125 0.023437-0.16797 0.066406-0.042969 0.046875-0.066406 0.10938-0.0625 0.17188-0.007812 0.10547-0.10156 0.18359-0.20703 0.17578l-0.44922-0.023437v-0.003907c-0.13672-0.003906-0.25781-0.078124-0.32812-0.19531l-0.13672-0.22656c-0.0625-0.10547-0.16406-0.17969-0.28125-0.21094l-0.67969-0.10547c-0.125-0.019531-0.18359-0.16406-0.11328-0.26562 0.24219-0.30469 0.42969-0.64453 0.55469-1.0117l0.43359-1.4922c0.10156-0.34766 0.42969-0.57812 0.79297-0.55859l2.5039 0.15234-0.003906 0.003906c0.13281 0.003906 0.24609-0.10156 0.25-0.23438 0.011718-0.10547 0.10156-0.1875 0.21094-0.18359 0 0 0.5 0.007812 0.83594 0.011718 0.17969 0 0.34375 0.10938 0.41406 0.27344l0.007813 0.015625c0.078124 0.17578 0.25781 0.27734 0.44531 0.25781l1.3594-0.15234c0.11719-0.015626 0.14844-0.16797 0.046875-0.22656l-0.37891-0.21484h0.003906c-0.16797-0.09375-0.26172-0.27344-0.25-0.46094l0.046875-0.65234c0.015625-0.23828 0.21094-0.42188 0.44922-0.41797l1.1172 0.003907c0.17188 0.003906 0.31641 0.125 0.35156 0.29297 0.023437 0.12109 0.10156 0.22266 0.20703 0.28516l0.26953 0.14063c0.14062 0.074218 0.3125 0.042968 0.41797-0.078126l0.21484-0.24609c0.12891-0.14844 0.14062-0.37109 0.023437-0.53125l-0.19531-0.27344c-0.0625-0.089843-0.003906-0.21094 0.10547-0.21875l0.24219-0.015625c0.10156-0.007812 0.19141 0.066406 0.19922 0.16797 0 0.19922 0.078125 0.38672 0.21875 0.52734l0.38672 0.38672c0.066406 0.0625 0.10156 0.14844 0.097656 0.24219-0.003906 0.089844-0.046875 0.17188-0.11719 0.23047-0.17969 0.14062-0.28516 0.34766-0.29688 0.57422-0.011719 0.22266-0.023437 0.51172-0.03125 0.71484v0.003906c-0.007812 0.17188-0.085937 0.33203-0.21484 0.44141l-0.007813 0.007812c-0.17969 0.15625-0.27734 0.38672-0.26562 0.62109v0.023437c0.019531 0.37891 0.1875 0.73438 0.46484 0.98828l3.7734 3.4609h0.003907c0.12109 0.11328 0.31641 0.042969 0.34375-0.11719 0.035156-0.22266 0.027343-0.44531-0.019532-0.66406l-0.76953-3.3398c-0.027344-0.19531-0.37109-0.32813-0.40234-0.57031-0.015625-0.12109-0.11328-0.21484-0.23438-0.22266l-0.46484-0.011719c-0.27734-0.007812-0.50391-0.22266-0.52734-0.5l-0.023438-0.3125c-0.007812-0.10938-0.046875-0.21484-0.11328-0.30078l-0.054688-0.074219c-0.070312-0.09375 0.007813-0.22656 0.125-0.21094l0.19141 0.023438v0.003906c0.17188 0.027344 0.34375-0.074218 0.39844-0.24219 0.027344-0.11719 0.18359-0.14844 0.25391-0.050781l0.085938 0.11719c0.046875 0.0625 0.11719 0.09375 0.19141 0.085937 0.078125-0.007812 0.14062-0.054687 0.17188-0.125 0.097657-0.17969 0.28906-0.29297 0.49219-0.28906l0.19141-0.003906v0.003906c0.30859-0.007812 0.61328 0.082031 0.875 0.25l0.21094 0.13672c0.12109 0.078125 0.28125-0.003907 0.28906-0.14844 0-0.15234 0.058594-0.30078 0.16406-0.41016l0.75391-0.75c0.36719-0.36719 0.89453-0.52734 1.4062-0.42969l0.1875 0.035156v0.003906c0.085937 0.015625 0.16797-0.03125 0.19531-0.11328 0.042969-0.12891-0.019531-0.27344-0.14453-0.32812l-1.6445-0.75391c-0.16406-0.074219-0.26953-0.23828-0.26953-0.41797 0-0.14062 0.070313-0.27734 0.18359-0.35938 0.10938-0.085938 0.24219-0.13672 0.37891-0.15234l0.34766-0.042969v-0.003906c0.43359-0.046875 0.875 0.058594 1.2422 0.29688 0.17188 0.10938 0.36719 0.19531 0.56641 0.24219l1.4805 0.35156c0.058594 0.015625 0.15234 0.03125 0.17578-0.027344v0.003906c0.066407-0.14844 0.015626-0.32031-0.11328-0.41016zm-65 20.57c0 0.16016-0.10938 0.30078-0.26172 0.33984l-0.36719 0.097657h-0.003906c-0.42578 0.11328-0.88672 0.023437-1.2383-0.24609l-0.28906-0.21875c-0.15234-0.11328-0.33594-0.17578-0.52344-0.17578-0.20703 0-0.38281-0.14453-0.42188-0.34375l-0.12109-0.58984v-0.003906c-0.023438-0.125 0.011719-0.25 0.097656-0.34375 0.16406-0.17188 0.25391-0.39844 0.25391-0.63281 0-0.32812-0.12891-0.63672-0.35547-0.86719l-1.3047-1.3203v-0.003906c-0.10156-0.10156-0.15625-0.23828-0.15625-0.37891 0-0.26953-0.11328-0.52344-0.3125-0.70703-0.11328-0.10547-0.17578-0.25391-0.16797-0.41016 0.007813-0.16016 0.085938-0.30078 0.21094-0.39453l1.5352-1.1289c0.25-0.18359 0.5625-0.26172 0.87109-0.21875l0.32031 0.046875c0.27734 0.039062 0.48438 0.27734 0.48438 0.55859v0.14844c0 0.28906-0.21875 0.53125-0.50781 0.55859l-0.22266 0.019531c-0.14844 0.015625-0.28906 0.085937-0.38281 0.20312-0.16406 0.19922-0.15234 0.49219 0.027344 0.67578l0.66797 0.69141-0.003906 0.003906c0.125 0.12891 0.29297 0.20703 0.46875 0.21875 0.19531 0.015625 0.34766 0.17578 0.34766 0.37109v0.22266c0 0.19922 0.0625 0.39453 0.17969 0.55469 0.17969 0.24219 0.27734 0.53516 0.27734 0.83594v0.12109c0 0.16016 0.12891 0.28906 0.28906 0.28906 0.13281 0 0.24219 0.10938 0.24219 0.24219 0 0.13281 0.070312 0.25781 0.1875 0.32422 0.10938 0.0625 0.17969 0.17969 0.17969 0.30469z"/>
  <path fill="white" d="m74.043 40.242c-0.082031 0.085937-0.082031 0.21875 0 0.30859l0.26562 0.28125-0.003906-0.003906c0.14453 0.15625 0.22656 0.35547 0.22656 0.56641v0.25391c0 0.054687-0.023438 0.10937-0.0625 0.15234-0.039062 0.039063-0.09375 0.058594-0.15234 0.058594-0.085937 0-0.15625 0.074219-0.14844 0.16406l0.015625 0.22656c0.019531 0.28516 0.13672 0.55078 0.33203 0.76172l0.19141 0.20703v-0.003906c0.09375 0.10156 0.25 0.10938 0.35156 0.015625l0.13281-0.11719c0.089844-0.078125 0.10938-0.21094 0.042969-0.3125l-0.03125-0.050781v0.003906c-0.050781-0.082031 0.011719-0.19141 0.10938-0.1875l0.1875 0.007813v0.003906c0.21094 0.007813 0.41797 0.058594 0.60938 0.14844l0.28125 0.13281c0.097656 0.042969 0.21094-0.023437 0.21875-0.12891l0.011719-0.16016c0.015625-0.20703 0.18359-0.37109 0.39062-0.37891l0.32031-0.011718c0.12891-0.003907 0.23047-0.10938 0.23047-0.23828 0-0.12109-0.074219-0.23047-0.1875-0.28125l-0.41406-0.17969v-0.003907c-0.21094-0.089843-0.4375-0.15234-0.66797-0.1875-0.37109-0.050781-0.72656-0.1875-1.0391-0.39453l-1.0078-0.67578c-0.066406-0.042969-0.15234-0.035156-0.20312 0.023438z"/>
  <path fill="white" d="m73.262 50.078-0.29688-0.35938c-0.050782-0.0625-0.074219-0.14062-0.066406-0.21875 0.007812-0.078125 0.050781-0.15234 0.11328-0.19922l0.36328-0.28125c0.125-0.09375 0.28125-0.14062 0.44141-0.12109 0.23047 0.027343 0.40234 0.22266 0.40234 0.45312 0 0.19531-0.15625 0.35156-0.34766 0.35156-0.19922 0-0.375 0.13672-0.42188 0.33203-0.023438 0.082032-0.12891 0.10938-0.1875 0.042969z"/>
  <path fill="white" d="m71.438 66.441c-0.011719-0.039062-0.007812-0.11719-0.09375-0.11328-0.11328-0.011719-0.19922-0.11328-0.1875-0.22656v-0.074218c0-0.10938 0.089844-0.19922 0.20312-0.19922h0.3125c0.1875 0 0.33984 0.15234 0.33984 0.33984v0.58984c0 0.09375-0.050781 0.17969-0.13672 0.22266-0.074219 0.035156-0.125 0.10547-0.14062 0.1875l-0.054687 0.26562c-0.015626 0.082031-0.12109 0.10547-0.17188 0.039062l-0.24609-0.32422h0.003906c-0.054687-0.058594-0.082031-0.14063-0.074219-0.21875 0.011719-0.0625 0.046875-0.082032 0.12891-0.19922 0.082032-0.12109 0.14063-0.20703 0.11719-0.28906z"/>
  <path fill="white" d="m89.402 84.035-1.1562-0.23438c-0.45312-0.089843-0.85547-0.35547-1.1133-0.73828l-0.49609-0.72656c-0.15625-0.23438-0.38281-0.41016-0.64453-0.50781-0.24609-0.085937-0.51563-0.070313-0.74609 0.046875l-0.52734 0.26172c-0.074219 0.039062-0.13281 0.10547-0.15625 0.1875-0.027344 0.082031-0.015625 0.16797 0.027344 0.24219 0.054687 0.082032 0.03125 0.19531-0.050782 0.24609l-0.1875 0.11328v0.003907c-0.125 0.074218-0.27344 0.10937-0.42187 0.10156l-0.59766-0.035156c-0.18359-0.011719-0.35156-0.10156-0.46484-0.24609l-0.31641-0.40625c-0.12109-0.15234-0.31641-0.23047-0.50781-0.19922l-1.1016 0.17578v-0.003906c-0.12891 0.023438-0.22656-0.12109-0.15625-0.23438l0.30859-0.49609c0.050781-0.070313 0.12891-0.10938 0.21484-0.10547 0.11719 0 0.19922-0.11328 0.16406-0.22266l-0.3125-0.96875v0.003907c-0.066406-0.19531-0.19922-0.36328-0.37891-0.46094l-0.82812-0.46484c-0.17188-0.089844-0.35547-0.13281-0.54688-0.13281-0.12891-0.003906-0.25391-0.050781-0.35156-0.13672l-0.72266-0.62891h-0.003906c-0.078125-0.066406-0.19531-0.042969-0.24219 0.046875l-0.10156 0.19531v0.003906c-0.050781 0.097656-0.15234 0.16016-0.26562 0.16016-0.074219 0-0.13672-0.0625-0.13281-0.14062l0.003906-0.13281c0.003906-0.12891-0.0625-0.25-0.17578-0.31641l-0.32422-0.1875c-0.03125-0.015625-0.050782-0.046875-0.0625-0.078125-0.011719-0.035156-0.007813-0.070312 0.007812-0.10156 0.023438-0.0625 0.082032-0.14844 0.16016-0.14844 0.074219-0.003906 0.10156 0.058594 0.17578 0.10547 0.054687 0.019531 0.14844 0.019531 0.29688-0.078125l0.042969-0.039063-0.003907-0.003906c0.10547-0.085937 0.25-0.10156 0.37109-0.039062l0.027344 0.015625-0.003907-0.003907c0.089844 0.050782 0.19922-0.003906 0.21875-0.10547l0.015626-0.089844h-0.003907c0.011719-0.0625-0.035156-0.11719-0.097656-0.11719l-0.80859 0.03125h-0.003906c-0.16797 0.007813-0.32031-0.097656-0.37891-0.25391-0.070313-0.19141-0.25391-0.31641-0.45703-0.31641-0.097657 0.003906-0.1875-0.039062-0.25-0.11328l-0.17969-0.23047c-0.074219-0.089844-0.011719-0.22656 0.10547-0.23438l0.37891-0.023437c0.15234-0.007813 0.29688-0.0625 0.42188-0.15234l0.042969-0.03125c0.11328-0.085938 0.25391-0.12891 0.39453-0.12109 0.11719 0.011719 0.23047 0.058594 0.32031 0.13672l0.10938 0.089843c0.097656 0.074219 0.21875 0.11719 0.34766 0.11719 0.11719 0.003906 0.21484 0.097656 0.22266 0.21484l0.027344 0.69141 0.003906 0.003906c0 0.074219 0.027344 0.14844 0.070312 0.21094 0.17969 0.14062 0.3125 0.32812 0.38281 0.54297l0.085937 0.25391c0.023438 0.078125 0.097657 0.12891 0.17969 0.12891 0.097656 0 0.1875-0.042969 0.24609-0.12109l0.47656-0.64062c0.078125-0.10547 0.19531-0.17578 0.32422-0.19531l0.125 0.015625c0.10938 0.011719 0.19922-0.074219 0.19141-0.18359-0.007812-0.074219 0.03125-0.14453 0.10156-0.17188l0.19141-0.082031v-0.003907c0.1875-0.078124 0.40234-0.066406 0.58203 0.035157l0.71875 0.41406h-0.003906c0.13281 0.074219 0.27344 0.13672 0.41797 0.17578l0.39453 0.11328c0.097656 0.027344 0.19531 0.039062 0.29297 0.035156 0.074218 0 0.14453 0.019531 0.20703 0.054688l0.74609 0.42187c0.125 0.070313 0.26562 0.10938 0.40625 0.11719 0.1875 0.011719 0.36328 0.078125 0.51172 0.19141 0.10156 0.089844 0.23828 0.14062 0.375 0.14453 0.078124-0.003907 0.15625 0.023437 0.21094 0.078124l0.49609 0.45313c0.11328 0.09375 0.18359 0.23047 0.19531 0.375 0.015625 0.23828 0.16016 0.44531 0.37109 0.55078l0.42188 0.20312c0.058594 0.03125 0.125 0.046875 0.19141 0.042968 0.12109-0.007812 0.23438 0.042969 0.31641 0.12891 0.085938 0.09375 0.12891 0.21875 0.11719 0.34375-0.007812 0.078125-0.074219 0.13672-0.15625 0.13281l-0.23438-0.003906 0.003906 0.003906c-0.10156 0-0.1875 0.082031-0.1875 0.18359 0 0.13281 0.050781 0.26172 0.14844 0.35938l2.0977 2.0391c0.097656 0.097657 0.12109 0.25 0.054687 0.37109-0.039062 0.074219-0.11719 0.10938-0.19922 0.09375z"/>
  <path fill="white" d="m90.891 79.824c0.007813 0.0625-0.011719 0.12891-0.046875 0.17969-0.042969 0.050782-0.10547 0.078125-0.16797 0.082032h-0.003906c-0.0625 0-0.12109 0.03125-0.15625 0.082031l-0.085937 0.12109c-0.074219 0.10156-0.1875 0.16406-0.31641 0.17188-0.074219 0.003906-0.14453 0.03125-0.20312 0.082031l-0.019531 0.015625c-0.10156 0.085937-0.22656 0.13672-0.36328 0.14062l-0.17578 0.007812 0.003907 0.003907c-0.097657 0-0.19141-0.050782-0.24219-0.13281-0.046875-0.066406-0.125-0.10156-0.20312-0.09375l-0.050781 0.003906c-0.074219 0.007813-0.14844-0.011719-0.21484-0.050781l-0.15625-0.09375h0.003907c-0.097657-0.054688-0.15625-0.16016-0.15234-0.27344 0-0.0625 0.050781-0.10937 0.10938-0.10937h0.81641c0.042969 0 0.082031-0.035157 0.082031-0.082032v-0.042968l-0.003906 0.003906c0-0.0625 0.023438-0.125 0.070312-0.16797 0.042969-0.042969 0.10156-0.070313 0.16406-0.070313 0.050781 0 0.089844 0.042969 0.089844 0.09375v0.25781-0.003906c0 0.046875 0.039062 0.082031 0.085937 0.078125l0.32422-0.019532c0.023437 0 0.050781-0.015624 0.0625-0.039062l0.16406-0.28906v-0.003907c0.015624-0.019531 0.035156-0.035156 0.0625-0.039062l0.20703-0.027344v0.003906c0.039062-0.007812 0.070312-0.042969 0.066406-0.085937l-0.039063-0.45703 0.003907-0.003906c-0.003907-0.046875 0.035156-0.085937 0.082031-0.085937l0.4375 0.03125v0.003906c0.035156 0 0.0625 0.027344 0.074219 0.058594 0.074219 0.27734 0.03125 0.38672-0.023438 0.43359-0.09375 0.078126-0.26172 0.019532-0.30469 0.10547-0.027344 0.050781 0.023437 0.082031 0.019531 0.21094z"/>
  <path fill="white" d="m91.395 79.199-0.027343-0.17969c-0.023438-0.15234-0.10547-0.28516-0.22656-0.375l-0.87891-0.64844h0.003906c-0.078125-0.054688-0.09375-0.16406-0.039063-0.24219 0.046876-0.058594 0.12891-0.070312 0.1875-0.023437l1.168 0.92578c0.15625 0.12109 0.25 0.30859 0.26172 0.50391 0.003906 0.10547-0.03125 0.20703-0.097656 0.28516-0.058594 0.066407-0.16016 0.070313-0.21875 0.007813-0.070313-0.066406-0.11719-0.15625-0.13281-0.25391z"/>
  <path fill="white" d="m92.992 80.816c-0.019532-0.035156-0.039063-0.070312-0.070313-0.097656l-0.10547-0.10547c-0.10938-0.10938-0.16016-0.26172-0.14062-0.41797l0.054688-0.41797h-0.003907c0.007813-0.058594 0.085938-0.074219 0.11719-0.027344l0.42578 0.62891h0.003907c0.054687 0.085938 0.125 0.16016 0.20703 0.22656 0.078125 0.066406 0.12891 0.16406 0.12891 0.26953 0 0.10938-0.097656 0.19141-0.20312 0.17578l-0.125-0.019531c-0.12891-0.019531-0.23438-0.10156-0.28906-0.21484z"/>
  <path fill="white" d="m94.449 81.688c-0.19531-0.14062-0.375-0.30078-0.53906-0.48047-0.070312-0.074219-0.074218-0.1875-0.007812-0.26562 0.042968-0.054687 0.11719-0.070312 0.17969-0.035156l0.19531 0.10938c0.074218 0.042969 0.11719 0.12109 0.11328 0.20312-0.007813 0.15625 0.36719 0.22656 0.38672 0.34766 0.003906 0.050782-0.19531 0.21094-0.32812 0.12109z"/>
  <path fill="white" d="m95.348 81.602c0.050782-0.003906 0.097656 0.007813 0.14062 0.035157 0.046875 0.015625 0.085938 0.042969 0.125 0.074219l0.46094 0.40234c0.066406 0.058594 0.10938 0.14062 0.12109 0.22656 0.011719 0.097656-0.066406 0.18359-0.16406 0.18359-0.082031 0-0.16406-0.03125-0.22266-0.085938l-0.54297-0.50391c-0.058594-0.039063-0.089844-0.10547-0.082031-0.17188 0.015625-0.085938 0.082031-0.14844 0.16406-0.16016z"/>
  <path fill="white" d="m96.793 82.219c0.10547 0.007812 0.1875 0.097656 0.1875 0.20312 0.003906 0.12109 0.035156 0.24219 0.097656 0.34766l0.23828 0.41406v0.003906c0.039063 0.0625 0.027344 0.14453-0.023437 0.19922-0.078125 0.078125-0.20703 0.070312-0.27344-0.015625l-0.097656-0.13281c-0.17188-0.22656-0.27734-0.49609-0.30859-0.78125l-0.003906-0.050781c-0.011719-0.10547 0.078125-0.19531 0.18359-0.1875z"/>
  <path fill="white" d="m95.789 83.25c0.011719 0.058594 0.039063 0.11328 0.074219 0.16016 0.082031 0.09375 0.20312 0.14844 0.32812 0.14453l0.35156 0.027343c0.10156 0.007813 0.1875-0.066406 0.19922-0.16797 0.003906-0.070312-0.019532-0.14062-0.070313-0.1875-0.10938-0.078124-0.23047-0.12891-0.36328-0.15234-0.078125-0.027344-0.15234-0.0625-0.22656-0.10156-0.12109-0.0625-0.14062-0.089844-0.17969-0.078125-0.089844 0.019531-0.14453 0.20703-0.11328 0.35547z"/>
  <path fill="white" d="m94.602 82.555-0.64062-0.48438c-0.10547-0.082031-0.14844-0.22266-0.10547-0.34766 0.023437-0.070312 0.10938-0.097656 0.17188-0.054687l0.30078 0.21484c0.0625 0.042969 0.13672 0.066407 0.21484 0.0625 0.10547-0.007812 0.20703 0.046876 0.25781 0.13672l0.16016 0.26953c0.035156 0.058594 0.027343 0.12891-0.019532 0.17969-0.089844 0.09375-0.23828 0.10547-0.33984 0.023438z"/>
  <path fill="white" d="m97.035 83.859 0.089844 0.16016c0.078125 0.14062 0.23047 0.22656 0.39062 0.22266 0.070313-0.003907 0.11719-0.078126 0.085937-0.14063l-0.015624-0.03125c-0.070313-0.14453-0.21094-0.23828-0.375-0.25391l-0.14063-0.011718h0.003907c-0.03125-0.003907-0.050781 0.027343-0.039063 0.054687z"/>
  <path fill="white" d="m15.652 21.828h-0.69922c-0.33594 0-0.66016-0.125-0.91016-0.35156l-0.46484-0.42187c-0.10938-0.10156-0.17578-0.24219-0.18359-0.39063-0.003906-0.15234 0.050781-0.29687 0.15234-0.40625l1.9414-2.0586c0.47266-0.50391 1.0703-0.87109 1.7305-1.0703l3.5312-1.0625c0.23047-0.070312 0.48438-0.035156 0.68359 0.10156 0.058594 0.039062 0.09375 0.10156 0.097656 0.17188 0.003906 0.066406-0.027344 0.13672-0.078125 0.17969l-0.125 0.10156c-0.14062 0.11328-0.30078 0.19922-0.47656 0.24219l-1.7969 0.47656c-0.72656 0.19141-1.3984 0.55859-1.9531 1.0664l-1.7266 1.5781c-0.15625 0.14062-0.24219 0.34766-0.23438 0.5625 0.007813 0.21875 0.10156 0.42969 0.25781 0.58594l0.38281 0.37891v-0.003907c0.12109 0.11719 0.039062 0.32422-0.12891 0.32031z"/>
  <path fill="white" d="m33.793 16.551 0.85547-0.98047v0.003907c0.089843-0.10547 0.21875-0.16406 0.35547-0.16406 0.21875 0 0.43359 0.0625 0.62109 0.17969l0.69141 0.4375c0.10156 0.0625 0.12109 0.20312 0.042969 0.29688-0.11719 0.12891-0.27734 0.21094-0.45312 0.22656l-1.2852 0.11328c-0.14453 0.015626-0.28516 0.066407-0.40625 0.14844-0.12109 0.085938-0.28906 0.082031-0.40234-0.015625-0.074219-0.0625-0.085938-0.17188-0.019531-0.24609z"/>
  <path fill="white" d="m33.008 16.059 0.52734-0.16016c0.13672-0.039063 0.23828-0.16016 0.25391-0.30078l0.054688-0.51172c0.011719-0.11719-0.050781-0.23047-0.15625-0.28125-0.15234-0.070313-0.32812-0.058594-0.46875 0.035156l-0.36328 0.23828c-0.054688 0.035156-0.12891 0.039063-0.18359 0.003906-0.10547-0.058593-0.12109-0.20312-0.035156-0.28125l0.11719-0.10938v-0.003906c0.054688-0.046875 0.039063-0.13281-0.023437-0.16406-0.16406-0.074219-0.26953-0.23828-0.26953-0.42188 0-0.074218 0.0625-0.13672 0.13672-0.13672 0.085938 0 0.12109-0.11328 0.050782-0.16406l-0.64453-0.45703v0.003906c-0.12109-0.089844-0.28906-0.082031-0.40625 0.015625-0.18359 0.15625-0.40625 0.26172-0.64453 0.30078l-0.40625 0.066407-0.003906-0.003907c-0.11328 0.019532-0.1875 0.13281-0.16406 0.24219 0.035156 0.14453-0.03125 0.29297-0.16016 0.36328l-0.48438 0.27344v-0.003907c-0.10547 0.058594-0.097656 0.21484 0.015625 0.26172l0.86719 0.37891c0.058593 0.023437 0.12891 0.03125 0.19531 0.019531 0.11328-0.023438 0.23438 0.019531 0.3125 0.10938l0.14453 0.16797c0.16016 0.1875 0.39453 0.29688 0.64062 0.29688l0.26562-0.003907v0.003907c0.16797-0.003907 0.33203 0.050781 0.46484 0.15625 0.10547 0.082031 0.24219 0.10547 0.36719 0.066406z"/>
 </g></svg>