<svg width="180" height="180" xmlns="http://www.w3.org/2000/svg" viewBox="0 0 32 32"><defs><style>.cls-1{fill:#a1d8df}.cls-2{fill:#30acc2}.cls-3{fill:#d1e6e9}</style></defs><g id="Balance"><path class="cls-1" transform="rotate(-71.56 4.504 10.498)" d="M-.24 9.5h9.49v2H-.24z"/><path class="cls-1" transform="rotate(-18.43 7.499 10.516)" d="M6.5 5.76h2v9.49h-2z"/><path class="cls-2" d="M2 14h8a1 1 0 0 1 1 1v1a3 3 0 0 1-3 3H4a3 3 0 0 1-3-3v-1a1 1 0 0 1 1-1z"/><path class="cls-1" transform="rotate(-18.44 27.507 10.503)" d="M26.5 5.76h2v9.49h-2z"/><path class="cls-1" transform="rotate(-71.57 24.496 10.5)" d="M19.76 9.5h9.49v2h-9.49z"/><path class="cls-2" d="M24 14h4a3 3 0 0 1 3 3v1a1 1 0 0 1-1 1h-8a1 1 0 0 1-1-1v-1a3 3 0 0 1 3-3z" transform="rotate(-180 26 16.5)"/><path class="cls-3" d="M2 5h28v2H2z"/><path class="cls-3" d="M18 27h-4l1-26h2l1 26z"/><path class="cls-1" d="M20 7.8 16 11l-4-3.2C10.09 6.27 11.09 3 13.5 3c1.32 0 1.69.47 2.5 1.33l.52-.55A2.42 2.42 0 0 1 18.29 3 2.69 2.69 0 0 1 20 7.8z"/><path class="cls-2" d="M10 29h12v2H10z"/><path style="fill:#68c7d3" d="M12 27h8v2h-8z"/></g></svg>