<svg width="45" height="45" viewBox="0 0 45 45" fill="none" xmlns="http://www.w3.org/2000/svg">
<path d="M24.2291 12.8574H20.7676V28.9289H24.2291V12.8574Z" fill="#222222"/>
<path d="M22.5 0C10.0731 0 0 3.6 0 8.03571V36.9643C0 41.4 10.0731 45 22.5 45C34.9269 45 45 41.4 45 36.9643V8.03571C45 3.6 34.9269 0 22.5 0ZM35.6885 14.5446C37.5231 14.0786 39.1327 13.5 40.4827 12.8571C40.8652 12.6804 41.2096 12.5036 41.5385 12.3107V17.6786C41.4173 18.4179 39.375 19.7518 35.7058 20.8125C34.3904 21.1982 32.8673 21.5518 31.1538 21.825V25.0875C32.7635 24.8609 34.2865 24.5571 35.6885 24.1859C37.5231 23.7198 39.1327 23.1429 40.4827 22.4984C40.8652 22.3216 41.2096 22.1448 41.5385 21.952V27.3214C41.4173 28.0607 39.375 29.3946 35.7058 30.4554C34.3904 30.8411 32.8673 31.1946 31.1538 31.4679V34.7304C32.7635 34.5037 34.2865 34.2 35.6885 33.8287C37.5231 33.3627 39.1327 32.7857 40.4827 32.1413C40.8652 31.9645 41.2096 31.7877 41.5385 31.5948V36.9643C41.3135 38.3625 34.3558 41.7857 22.5 41.7857C10.6442 41.7857 3.68654 38.3625 3.46154 36.9643V31.5964C3.79038 31.7893 4.13654 31.9661 4.51731 32.1429C5.85 32.7857 7.47692 33.3482 9.29423 33.8304C10.6962 34.2 12.2192 34.5054 13.8462 34.732V31.4695C12.1327 31.1802 10.6096 30.8266 9.31154 30.457C5.625 29.3786 3.58269 28.0607 3.46154 27.3214V21.9536C3.79038 22.1464 4.13654 22.3232 4.51731 22.5C5.85 23.1429 7.47692 23.7054 9.29423 24.1875C10.6962 24.5571 12.2192 24.8625 13.8462 25.0891V21.8266C12.1327 21.5373 10.6096 21.1838 9.31154 20.8141C5.625 19.7357 3.58269 18.4179 3.46154 17.6786V12.3107C3.79038 12.5036 4.13654 12.6804 4.51731 12.8571C5.85 13.5 7.47692 14.0625 9.29423 14.5446C10.6962 14.9143 12.2192 15.2196 13.8462 15.4446V12.1821C12.1327 11.8929 10.6096 11.5393 9.31154 11.1696C5.625 10.0929 3.58269 8.775 3.46154 8.03571C3.68654 6.6375 10.6442 3.21429 22.5 3.21429C34.3558 3.21429 41.3135 6.65357 41.5385 8.03571C41.4173 8.775 39.375 10.1089 35.7058 11.1696C34.3904 11.5554 32.8673 11.9089 31.1538 12.1821V15.4446C32.7635 15.2196 34.2865 14.9143 35.6885 14.5446Z" fill="#222222"/>
<path d="M24.2291 32.1426H20.7676V35.3569H24.2291V32.1426Z" fill="#222222"/>
</svg>
