<svg width="50" height="50" viewBox="0 0 50 50" fill="none" xmlns="http://www.w3.org/2000/svg">
<path fill-rule="evenodd" clip-rule="evenodd" d="M23.6045 19.0834L42.667 25.125C44.0117 25.5266 44.9982 26.6761 45.191 28.0662C45.3839 29.4563 44.7475 30.831 43.5628 31.5834L36.917 35.75C36.4771 36.0227 36.1064 36.3935 35.8337 36.8334L31.667 43.4792C31.0398 44.4977 29.9256 45.1141 28.7295 45.1042C27.132 45.1153 25.7133 44.0851 25.2295 42.5625L19.1878 23.5C18.793 22.2478 19.1277 20.88 20.0561 19.9516C20.9845 19.0232 22.3523 18.6885 23.6045 19.0834ZM35.1462 32.875L41.792 28.7084C41.8619 28.6426 41.8709 28.5347 41.8128 28.4584C41.792 28.3125 41.6462 28.3125 41.6462 28.3125L22.5837 22.2708V22.3958L28.6253 41.4584C28.6467 41.5883 28.7651 41.6794 28.8962 41.6667L33.0628 34.9584C33.6021 34.1244 34.3122 33.4143 35.1462 32.875Z" fill="white"/>
<path d="M11.417 9.22919C10.8239 8.69868 9.92678 8.69868 9.33366 9.22919C8.82137 9.82915 8.82137 10.7126 9.33366 11.3125L13.5003 15.6875C13.7979 15.9733 14.192 16.1369 14.6045 16.1459C15.0179 16.1411 15.4134 15.9769 15.7087 15.6875C16.0416 15.4041 16.2385 14.9927 16.2504 14.5556C16.2624 14.1185 16.0881 13.697 15.7712 13.3959L11.417 9.22919Z" fill="white"/>
<path d="M20.3128 13.3959C20.7273 13.3849 21.1204 13.2098 21.4056 12.9089C21.6909 12.608 21.8449 12.2061 21.8337 11.7917V5.72919C21.8337 4.86624 21.1341 4.16669 20.2712 4.16669C19.4082 4.16669 18.7087 4.86624 18.7087 5.72919V11.7917C18.6971 12.2206 18.8623 12.6354 19.1657 12.9388C19.4691 13.2422 19.8839 13.4074 20.3128 13.3959Z" fill="white"/>
<path d="M26.1253 13.2709C26.54 13.2728 26.9381 13.1076 27.2295 12.8125L31.5212 8.52085C31.9392 8.13133 32.1113 7.5447 31.9699 6.99109C31.8285 6.43747 31.3962 6.00518 30.8426 5.8638C30.289 5.72242 29.7023 5.89449 29.3128 6.31252L25.0212 10.6042C24.4119 11.2142 24.4119 12.2025 25.0212 12.8125C25.3126 13.1076 25.7106 13.2728 26.1253 13.2709Z" fill="white"/>
<path d="M10.7087 24.9167L6.417 29.2084C5.80772 29.8184 5.80772 30.8066 6.417 31.4167C6.70705 31.7138 7.10597 31.8794 7.52116 31.875C7.93588 31.877 8.3339 31.7118 8.62533 31.4167L12.917 27.125C13.335 26.7355 13.5071 26.1489 13.3657 25.5953C13.2243 25.0416 12.792 24.6094 12.2384 24.468C11.6848 24.3266 11.0982 24.4987 10.7087 24.9167Z" fill="white"/>
<path d="M11.8128 18.7292H5.72949C4.86655 18.7292 4.16699 19.4287 4.16699 20.2917C4.16699 21.1546 4.86655 21.8542 5.72949 21.8542H11.8128C12.6758 21.8542 13.3753 21.1546 13.3753 20.2917C13.3753 19.4287 12.6758 18.7292 11.8128 18.7292Z" fill="white"/>
</svg>
