<svg width="170" height="170" xmlns="http://www.w3.org/2000/svg" viewBox="0 0 256 256" xml:space="preserve"><path fill="#F0C020" d="M198.346 64.143c-3.961-1.309-8.051-2.453-10.348-12.345-2.115 9.112-5.504 10.745-10.348 12.345 7.9 2.61 9.092 6.933 10.348 12.345 2.165-9.329 5.746-10.824 10.348-12.345z"/><path d="M185.408 77.09c-1.147-4.945-1.905-8.212-8.591-10.421-2.43-.803-2.424-4.25 0-5.051 4.025-1.33 6.684-2.209 8.591-10.422.633-2.73 4.546-2.737 5.181 0 1.95 8.399 4.863 9.193 8.591 10.421 2.43.803 2.424 4.25 0 5.051-3.881 1.282-6.686 2.209-8.591 10.421-.636 2.743-4.544 2.743-5.181.001zm-1.52-12.886c1.914 1.314 3.222 2.815 4.164 4.403 1.141-2.017 2.462-3.405 3.934-4.439-1.411-1.01-2.778-2.44-3.977-4.601-1.187 2.133-2.573 3.575-4.121 4.637z"/><path fill="#F0C020" d="m108.996 160.229-4.01 5.91-53.92 79.44c-5.19 7.63-17.03 1.99-14.49-6.81l26.891-92.966a3 3 0 0 0-2.882-3.834H13.176c-5.41 0-9.3-5.21-7.79-10.39l34.76-118.92c.98-3.42 4.19-5.82 7.77-5.82h51.96c5.43 0 9.29 5.19 7.79 10.34L85.457 94.44a3 3 0 0 0 2.883 3.829h14.426c-12.33 19.2-10.25 44.96 6.23 61.96z"/><path fill="#E7A523" d="m108.996 160.229-4.01 5.91c-17.13-16.98-23.15-44.3-10.35-67.87h8.13c-12.33 19.2-10.25 44.96 6.23 61.96z"/><path fill="#71C1E8" d="M185.246 155.299a50.283 50.283 0 0 1-10.25 10.25c-19.64 14.68-47.6 13.1-65.45-4.75-.19-.19-.37-.38-.55-.57-16.48-17-18.56-42.76-6.23-61.96 1.91-2.98 4.17-5.8 6.78-8.41 19.6-19.6 51.35-19.6 70.94 0 17.85 17.85 19.44 45.79 4.76 65.44z"/><path fill="#EEE" d="m185.246 155.299 8.914 8.914-10.249 10.249-8.914-8.914a50.425 50.425 0 0 0 10.249-10.249z"/><path fill="#71C1E8" d="m183.062 175.307 11.939-11.939a2.748 2.748 0 0 1 3.886 0l48.778 48.778c4.37 4.37 4.37 11.455 0 15.825-4.37 4.37-11.455 4.37-15.825 0l-48.778-48.778a2.748 2.748 0 0 1 0-3.886z"/><circle fill="#EEE" cx="145.017" cy="125.325" r="36.246"/><path fill="#13BF6D" d="M159.8 127.34c0 8.165-6.619 14.784-14.784 14.784-8.165 0-14.784-6.619-14.784-14.784s14.784-25.844 14.784-25.844S159.8 119.175 159.8 127.34z"/><path fill="#F7E4B0" d="M48.802 232.484a2.5 2.5 0 0 1-1.706-3.097l.834-2.882a2.5 2.5 0 0 1 4.803 1.391l-.834 2.882a2.499 2.499 0 0 1-3.097 1.706zm3.613-12.488a2.5 2.5 0 0 1-1.707-3.096l19.964-69.014c1.956-6.775-3.151-13.418-10.087-13.418H15.69a2.501 2.501 0 0 1-2.399-3.201l33.651-115.13a2.5 2.5 0 1 1 4.799 1.403L19.025 129.469h41.56c10.23 0 17.779 9.815 14.89 19.808L55.511 218.29a2.5 2.5 0 0 1-3.096 1.706z"/><path fill="#C4E4FD" d="m238.826 220.984-2.121-2.121a2.499 2.499 0 1 1 3.535-3.535l2.121 2.121a2.498 2.498 0 0 1 0 3.535 2.498 2.498 0 0 1-3.535 0zm-9.192-9.192-34.458-34.458a2.499 2.499 0 1 1 3.535-3.535l34.458 34.458a2.498 2.498 0 0 1 0 3.535 2.498 2.498 0 0 1-3.535 0z"/><path d="M53.62 179.83c1.291.39 2.71-.363 3.1-1.71a2.5 2.5 0 0 0-1.71-3.101c-1.3-.37-2.72.42-3.09 1.71a2.502 2.502 0 0 0 1.7 3.101zM142.51 144.42v4.729c0 1.381 1.13 2.5 2.51 2.5 1.37 0 2.49-1.119 2.49-2.5v-4.727c8.35-1.215 14.791-8.401 14.791-17.082 0-7.641-10.46-21.579-15.366-27.448a2.494 2.494 0 0 0-3.836 0c-4.896 5.857-15.365 19.815-15.365 27.448-.001 8.677 6.433 15.859 14.776 17.08zm5-35.67c2.461 3.346 4.959 7.083 6.821 10.48l-6.821 7.766V108.75zm0 25.821 9.125-10.389c2.311 6.569-2.23 13.758-9.125 15.186v-4.797zm-5-25.801v11.991l-5.289-4.151c1.599-2.631 3.453-5.343 5.289-7.84zm-7.751 12.27 7.751 6.078v12.247c-5.575-1.161-9.776-6.11-9.776-12.024-.001-1.579.788-3.799 2.025-6.301zM130.91 79.68c1.656 0 2.866-1.597 2.39-3.2-.37-1.29-1.81-2.08-3.1-1.699a2.486 2.486 0 0 0-1.69 3.1 2.5 2.5 0 0 0 2.4 1.799z"/><path d="M106.27 125.319c0 21.415 17.331 38.75 38.75 38.75 21.454 0 38.74-17.375 38.74-38.75 0-21.402-17.321-38.739-38.74-38.739-21.411 0-38.75 17.322-38.75 38.739zm38.75-33.739c18.651 0 33.74 15.093 33.74 33.739 0 18.702-15.131 33.75-33.74 33.75-18.656 0-33.75-15.083-33.75-33.75 0-18.547 14.993-33.739 33.75-33.739zM209.1 205.229a2.496 2.496 0 0 0 0-3.529c-.939-.95-2.59-.95-3.53 0a2.496 2.496 0 0 0-.01 3.529 2.508 2.508 0 0 0 3.54 0z"/><path d="m249.43 210.38-48.78-48.78c-1.641-1.657-4.2-2.064-6.362-.792l-5.778-5.778c6.063-8.856 9.171-19.257 9.171-29.72 0-30.948-26.606-55.161-57.17-52.46-1.418.128-2.403 1.343-2.28 2.7.11 1.36 1.34 2.39 2.7 2.28 28.479-2.31 51.75 20.049 51.75 47.479 0 26.315-21.27 47.681-47.67 47.681-26.459 0-47.66-21.49-47.66-47.671 0-18.414 10.437-34.265 25.47-42.189 1.203-.632 1.704-2.147 1.04-3.37a2.485 2.485 0 0 0-3.369-1.05c-7.439 3.91-14.024 9.677-19.047 17.06H88.34c-.29 0-.5-.26-.5-.5 0-.029 0-.08.02-.14l22.21-77.26c1.966-6.81-3.185-13.519-10.189-13.53H47.92c-4.7.01-8.88 3.15-10.18 7.63L2.979 130.88c-1.98 6.806 3.178 13.566 10.2 13.59h47.41c.354 0 .574.387.47.64L54.7 167.13a2.473 2.473 0 0 0 1.699 3.09c1.286.392 2.711-.37 3.101-1.7v-.02l6.37-22c1.015-3.633-1.738-7.019-5.28-7.03H13.18c-3.746-.012-6.448-3.626-5.399-7.18L42.55 13.359c.65-2.329 2.9-4.02 5.34-4.02h51.99c3.587 0 6.447 3.387 5.38 7.15C81.477 99.222 82.84 94.098 82.84 95.27c0 3.021 2.47 5.49 5.5 5.5h10.08a52.45 52.45 0 0 0-6.07 24.55c0 13.075 4.765 25.467 13.461 35.148L49 244.17c-3.734 5.374-11.77 1.238-10.03-4.7l14.97-51.74a2.498 2.498 0 0 0-1.71-3.1c-1.29-.38-2.72.42-3.09 1.71l-14.97 51.729c-3.327 11.661 12.34 18.808 18.96 8.91l56.255-82.882c9.819 9.044 22.494 13.893 35.625 13.893 10.246 0 20.677-2.98 29.716-9.177l5.777 5.771a5.216 5.216 0 0 0 .788 6.376l17.2 17.2c.949.939 2.59.949 3.54 0a2.511 2.511 0 0 0 .01-3.53h-.01c-.12-.12-17.271-17.21-17.271-17.38 0-.08.021-.12.06-.17.129-.129 11.94-11.995 12.12-12.021.08.01.13.021.181.07l48.779 48.78c3.358 3.356 3.42 8.849 0 12.29-3.369 3.369-8.866 3.422-12.29 0l-17.44-17.429c-.94-.95-2.59-.95-3.53 0a2.472 2.472 0 0 0 0 3.53l17.43 17.44c5.311 5.287 13.953 5.405 19.36 0 5.364-5.366 5.337-14.043 0-19.36zm-65.52-39.46-5.16-5.15a55.146 55.146 0 0 0 6.72-6.71l5.15 5.15-6.71 6.71z"/></svg>