<svg width="51" height="50" viewBox="0 0 51 50" fill="none" xmlns="http://www.w3.org/2000/svg">
<path d="M24.6966 16.75C23.8976 16.8421 23.2946 17.5186 23.2946 18.3229C23.2946 19.1272 23.8976 19.8037 24.6966 19.8958C25.1164 19.9016 25.5204 19.736 25.8153 19.4372C26.1102 19.1383 26.2705 18.7321 26.2591 18.3125C26.2479 17.4542 25.5549 16.7612 24.6966 16.75Z" fill="white"/>
<path d="M24.6966 22.75C24.2805 22.7443 23.8798 22.9071 23.5855 23.2014C23.2913 23.4956 23.1285 23.8963 23.1341 24.3125V30.8125C23.1341 31.6754 23.8337 32.375 24.6966 32.375C25.5596 32.375 26.2591 31.6754 26.2591 30.8125V24.3541C26.2704 23.9326 26.1107 23.5243 25.8165 23.2222C25.5222 22.9201 25.1183 22.7498 24.6966 22.75Z" fill="white"/>
<path fill-rule="evenodd" clip-rule="evenodd" d="M24.6966 4.16663C13.4371 4.17811 4.31226 13.3029 4.30078 24.5625C4.30078 35.8268 13.4323 44.9583 24.6966 44.9583C35.9609 44.9583 45.0924 35.8268 45.0924 24.5625C45.081 13.3029 35.9562 4.17811 24.6966 4.16663ZM24.6966 41.8333C15.1582 41.8333 7.42578 34.1009 7.42578 24.5625C7.42578 15.024 15.1582 7.29163 24.6966 7.29163C34.235 7.29163 41.9674 15.024 41.9674 24.5625C41.956 34.0961 34.2303 41.8218 24.6966 41.8333Z" fill="white"/>
</svg>
