<svg width="51" height="50" viewBox="0 0 51 50" fill="none" xmlns="http://www.w3.org/2000/svg">
<path d="M27.28 11.375C27.2687 12.2332 26.5757 12.9262 25.7175 12.9375C24.8592 12.9262 24.1662 12.2332 24.155 11.375V5.72913C24.155 4.86618 24.8545 4.16663 25.7175 4.16663C26.5804 4.16663 27.28 4.86618 27.28 5.72913V11.375Z" fill="white"/>
<path fill-rule="evenodd" clip-rule="evenodd" d="M25.8633 14.8541H25.7174C21.7381 14.782 18.0655 16.9836 16.2538 20.5273C14.4421 24.071 14.808 28.3373 17.1966 31.5208C19.2775 34.3052 20.4357 37.6705 20.5091 41.1458C20.8416 43.7691 23.0732 45.7357 25.7174 45.7357C28.3617 45.7357 30.5933 43.7691 30.9258 41.1458C30.8154 37.8104 31.8522 34.5381 33.8633 31.875C35.2827 30.0957 36.0803 27.9004 36.1341 25.625C36.2056 19.8404 31.6447 15.0575 25.8633 14.8541ZM25.7175 43.2291C24.5669 43.2291 23.6341 42.2964 23.6341 41.1458V40.6041H27.9258V41.1875C27.9155 41.7551 27.6739 42.2939 27.2571 42.6793C26.8402 43.0647 26.2841 43.2633 25.7175 43.2291Z" fill="white"/>
<path d="M25.7174 14.8541L25.8216 17.9791C28.631 18.0212 31.1725 19.6561 32.3757 22.1952C33.5789 24.7343 33.2348 27.7364 31.4883 29.9375C29.8016 32.1194 28.6719 34.6793 28.1966 37.3958H23.1966C22.57 34.5946 21.3791 31.9506 19.6966 29.625C18.098 27.3744 17.8901 24.4194 19.1579 21.9672C20.4257 19.5149 22.9569 17.976 25.7174 17.9791V14.8541Z" fill="white"/>
<path d="M40.9466 10.1458C40.3366 9.53651 39.3483 9.53651 38.7383 10.1458L34.8425 14.0208C34.2419 14.6425 34.2419 15.6283 34.8425 16.25C35.4724 16.8298 36.4417 16.8298 37.0716 16.25L40.9466 12.3541C41.5559 11.7441 41.5559 10.7558 40.9466 10.1458Z" fill="white"/>
<path d="M39.7174 22.9791H45.1966C46.0596 22.9791 46.7591 23.6787 46.7591 24.5416C46.7591 25.4046 46.0596 26.1041 45.1966 26.1041H39.7174C38.8545 26.1041 38.155 25.4046 38.155 24.5416C38.155 23.6787 38.8545 22.9791 39.7174 22.9791Z" fill="white"/>
<path d="M11.3424 22.9791H5.86328C5.00034 22.9791 4.30078 23.6787 4.30078 24.5416C4.30078 25.4046 5.00034 26.1041 5.86328 26.1041H11.3424C12.2054 26.1041 12.9049 25.4046 12.9049 24.5416C12.9049 23.6787 12.2054 22.9791 11.3424 22.9791Z" fill="white"/>
<path d="M16.8307 15.1354C16.8307 15.5546 16.6623 15.9562 16.3633 16.25C16.0659 16.5335 15.67 16.6904 15.2591 16.6875C14.8486 16.6883 14.4535 16.5317 14.155 16.25L10.28 12.3541C9.86192 11.9646 9.68985 11.378 9.83123 10.8244C9.97261 10.2707 10.4049 9.83845 10.9585 9.69707C11.5121 9.55569 12.0988 9.72776 12.4883 10.1458L16.3633 14.0208C16.6623 14.3146 16.8307 14.7162 16.8307 15.1354Z" fill="white"/>
</svg>
