<svg width="50" height="50" viewBox="0 0 50 50" fill="none" xmlns="http://www.w3.org/2000/svg">
<path fill-rule="evenodd" clip-rule="evenodd" d="M5.68645 16.4214C8.76929 8.99531 16.0228 4.15827 24.0634 4.1667C29.3327 4.1667 34.3858 6.26133 38.1098 9.98921C41.8338 13.7171 43.9231 18.7724 43.9176 24.0417C43.9176 32.0823 39.0729 39.3307 31.6436 42.4058C24.2142 45.4808 15.664 43.7766 9.98146 38.0881C4.29889 32.3995 2.60361 23.8475 5.68645 16.4214ZM39.6467 30.0834C40.3741 28.1526 40.7413 26.1049 40.7301 24.0417C40.7769 20.2473 39.5275 16.5505 37.1884 13.5625C36.2509 15.125 34.4801 17.4584 32.2926 17.4584C31.451 17.3907 30.6041 17.4754 29.7926 17.7084V17.9375C29.7926 18.3125 30.8134 19.3334 31.3551 19.875C32.7041 20.881 33.6023 22.378 33.8551 24.0417C33.8551 27.375 34.1884 28.3959 34.4801 28.6459C36.2811 28.7747 38.038 29.2635 39.6467 30.0834ZM7.39673 24.0417C7.37779 20.3355 8.5947 16.7288 10.8551 13.7917C11.4454 14.8683 12.5858 15.5269 13.8134 15.5C15.4991 16.35 16.9891 17.542 18.1884 19C17.306 19.5426 16.5062 20.2091 15.8134 20.9792C15.7491 21.0411 15.6791 21.1093 15.6049 21.1815C15.0302 21.7412 14.2056 22.5441 13.8551 22.5625C12.8905 22.5334 11.9568 22.9037 11.2744 23.5861C10.5921 24.2684 10.2217 25.2022 10.2509 26.1667C10.2539 26.4055 10.3109 26.6405 10.4176 26.8542L12.2926 30.6042C12.3165 32.7611 12.6605 34.9025 13.3134 36.9584C9.51293 33.7511 7.34318 29.0143 7.39673 24.0417ZM18.3759 39.7084C20.1991 40.3701 22.1238 40.7085 24.0634 40.7084V40.7709C29.7972 40.8094 35.1482 37.8978 38.2301 33.0625C36.9734 32.454 35.6318 32.0396 34.2509 31.8334C30.6467 31.8334 30.6467 26.6667 30.6467 24.1667C30.6467 23.7891 29.718 22.8619 29.1441 22.2889C29.1163 22.2612 29.0894 22.2343 29.0634 22.2084C27.7239 21.1971 26.8339 19.7014 26.5842 18.0417C26.5842 14.4375 30.2509 14.4375 32.2092 14.4375C32.7509 14.4167 34.0426 12.875 34.8342 11.3334C28.6566 6.10391 19.6148 6.06877 13.3967 11.25C13.4283 11.4292 13.4283 11.6125 13.3967 11.7917C13.4176 12.2917 13.6467 12.2917 13.8759 12.2917C16.3759 12.2917 21.9801 17.375 22.0634 19.75C22.0667 20.2856 21.8408 20.797 21.4427 21.1553C21.0446 21.5136 20.5123 21.6845 19.9801 21.625C19.6051 21.6459 18.5842 22.6667 18.0426 23.2084C17.0291 24.549 15.5358 25.445 13.8759 25.7084C13.7092 25.7084 13.4592 25.7084 13.4592 25.9167L15.2717 29.3959C15.3784 29.6095 15.4354 29.8446 15.4384 30.0834C15.4384 32.3542 15.9384 36.0417 17.0217 37.1459C17.7776 37.8007 18.2607 38.7149 18.3759 39.7084Z" fill="white"/>
</svg>
