<svg version="1.1" xmlns="http://www.w3.org/2000/svg" xmlns:xlink="http://www.w3.org/1999/xlink" x="0px" y="0px" viewBox="0 0 100 100" xml:space="preserve"><g><polygon fill="white" points="0,34.031 8.816,50.423 6.344,54.293 11.758,56.148 14.848,52.9 21.961,53.675 23.51,49.965 36.97,45.787 
		40.987,49.342 39.907,54.604 44.083,52.743 43.311,56.148 47.799,53.367 48.417,56.148 52.282,59.239 58.158,57.078 56.614,60.787 
		64.657,55.529 65.894,47.412 70.227,40.373 70.227,32.171 66.976,29.698 66.206,24.595 61.718,24.595 61.562,17.322 58.626,16.242 
		57.696,12.219 54.604,11.445 54.137,7.117 50.889,10.828 50.734,18.562 48.728,20.725 49.658,23.977 37.74,18.097 36.659,12.989 
		38.977,10.521 30.471,10.828 27.38,18.097 23.047,18.097 21.655,13.919 17.171,21.348 14.23,21.191 12.372,27.069 	"/><polygon fill="white" points="57.002,63.959 60.713,68.443 64.733,63.959 64.733,60.787 59.938,63.651 	"/><polygon fill="white" points="57.775,87.624 59.009,92.883 64.034,92.883 71.228,84.92 78.189,83.141 79.969,77.49 74.324,76.18 67.749,83.372 	
		"/><polygon fill="white" points="82.678,68.443 82.135,73.551 87.317,74.786 83.609,80.974 89.247,79.044 93.506,69.373 100,68.443 96.753,63.729 
		92.807,64.619 87.087,54.755 83.297,57.231 89.173,66.28 	"/></g></svg>