<svg width="50" height="50" viewBox="0 0 50 50" fill="none" xmlns="http://www.w3.org/2000/svg">
<path fill-rule="evenodd" clip-rule="evenodd" d="M12.5003 4.16663H37.5003C42.1027 4.16663 45.8337 7.89759 45.8337 12.5V37.5C45.8337 42.1023 42.1027 45.8333 37.5003 45.8333H12.5003C7.89795 45.8333 4.16699 42.1023 4.16699 37.5V12.5C4.16699 7.89759 7.89795 4.16663 12.5003 4.16663ZM41.0506 41.0502C41.9922 40.1086 42.5212 38.8316 42.5212 37.5V12.5C42.5212 11.1684 41.9922 9.89128 41.0506 8.94969C40.109 8.00811 38.8319 7.47913 37.5003 7.47913H12.5003C9.7274 7.47913 7.47949 9.72703 7.47949 12.5V37.5C7.47949 38.8316 8.00847 40.1086 8.95006 41.0502C9.89165 41.9918 11.1687 42.5208 12.5003 42.5208H37.5003C38.8319 42.5208 40.109 41.9918 41.0506 41.0502Z" fill="white"/>
<path d="M33.3337 23.4375H26.5628V16.6666C26.5628 15.8037 25.8633 15.1041 25.0003 15.1041C24.1374 15.1041 23.4378 15.8037 23.4378 16.6666V23.4375H16.667C15.804 23.4375 15.1045 24.137 15.1045 25C15.1045 25.8629 15.804 26.5625 16.667 26.5625H23.4378V33.3333C23.4378 34.1962 24.1374 34.8958 25.0003 34.8958C25.8633 34.8958 26.5628 34.1962 26.5628 33.3333V26.5625H33.3337C34.1966 26.5625 34.8962 25.8629 34.8962 25C34.8962 24.137 34.1966 23.4375 33.3337 23.4375Z" fill="white"/>
</svg>
