<svg width="250" height="250" viewBox="0 0 143 135" fill="none" xmlns="http://www.w3.org/2000/svg">
<rect x="83" width="60" height="60" rx="10" fill="#D9D9D9"/>
<rect x="90.5" y="7.5" width="44" height="44" rx="9.5" fill="#D9D9D9" stroke="#E49C15"/>
<path d="M118.691 27H116.929C116.825 26.4934 116.643 26.0483 116.382 25.6648C116.127 25.2812 115.814 24.9593 115.445 24.6989C115.08 24.4337 114.675 24.2348 114.23 24.1023C113.785 23.9697 113.321 23.9034 112.838 23.9034C111.958 23.9034 111.16 24.1259 110.445 24.571C109.735 25.0161 109.169 25.6719 108.747 26.5384C108.331 27.4048 108.122 28.4678 108.122 29.7273C108.122 30.9867 108.331 32.0497 108.747 32.9162C109.169 33.7827 109.735 34.4384 110.445 34.8835C111.16 35.3286 111.958 35.5511 112.838 35.5511C113.321 35.5511 113.785 35.4848 114.23 35.3523C114.675 35.2197 115.08 35.0232 115.445 34.7628C115.814 34.4976 116.127 34.1733 116.382 33.7898C116.643 33.4015 116.825 32.9564 116.929 32.4545H118.691C118.558 33.1979 118.316 33.8632 117.966 34.4503C117.616 35.0374 117.18 35.5369 116.659 35.9489C116.138 36.3561 115.554 36.6662 114.905 36.8793C114.261 37.0923 113.572 37.1989 112.838 37.1989C111.598 37.1989 110.494 36.8958 109.529 36.2898C108.563 35.6837 107.803 34.822 107.249 33.7045C106.695 32.5871 106.418 31.2614 106.418 29.7273C106.418 28.1932 106.695 26.8674 107.249 25.75C107.803 24.6326 108.563 23.7708 109.529 23.1648C110.494 22.5587 111.598 22.2557 112.838 22.2557C113.572 22.2557 114.261 22.3622 114.905 22.5753C115.554 22.7884 116.138 23.1009 116.659 23.5128C117.18 23.92 117.616 24.4171 117.966 25.0043C118.316 25.5866 118.558 26.2519 118.691 27Z" fill="#E49C15"/>
<rect y="85" width="50" height="50" rx="10" fill="#D9D9D9"/>
<rect x="6.33398" y="91.3333" width="36.5" height="36.5" rx="9.5" fill="#D9D9D9" stroke="#AA0000"/>
<path d="M21.8386 114V103.091H28.4224V104.263H23.1596V107.949H28.0815V109.121H23.1596V112.828H28.5076V114H21.8386Z" fill="#AA0000" fill-opacity="0.933333"/>
<rect x="35" y="37" width="70" height="70" rx="10" fill="#006700"/>
<rect x="43.666" y="45.6667" width="51.5" height="51.5" rx="9.5" fill="#006700" stroke="white"/>
<path d="M65.0162 77H63.1696L68.5105 62.4545H70.3287L75.6696 77H73.823L69.4764 64.7557H69.3627L65.0162 77ZM65.698 71.3182H73.1412V72.8807H65.698V71.3182Z" fill="white"/>
</svg>
