<svg width="51" height="50" viewBox="0 0 51 50" fill="none" xmlns="http://www.w3.org/2000/svg">
<path d="M46.3461 27.1042L36.6795 17.4167C36.0495 16.8369 35.0802 16.8369 34.4503 17.4167L24.8461 27.1042C24.4543 27.7085 24.5263 28.5025 25.0206 29.0264C25.5149 29.5504 26.3033 29.6685 26.9295 29.3125L33.6378 22.6042V41.1458C33.6378 42.0088 34.3373 42.7083 35.2003 42.7083C36.0632 42.7083 36.7628 42.0088 36.7628 41.1458V22L44.0753 29.3125C44.6853 29.9218 45.6736 29.9218 46.2836 29.3125C46.9105 28.7199 46.9385 27.7313 46.3461 27.1042Z" fill="white"/>
<path d="M24.8461 19.2083C24.2361 18.5991 23.2478 18.5991 22.6378 19.2083L15.992 25.9167V7.8125C15.992 6.94956 15.2924 6.25 14.4295 6.25C13.5665 6.25 12.867 6.94956 12.867 7.8125V26.5625L5.55445 19.2083C4.93881 18.6347 3.97943 18.6516 3.3844 19.2466C2.78938 19.8416 2.77245 20.801 3.34612 21.4167L13.0128 31.1042C13.63 31.7159 14.6248 31.7159 15.242 31.1042L24.8461 21.4167C25.4554 20.8066 25.4554 19.8184 24.8461 19.2083Z" fill="white"/>
</svg>
