<svg width="50" height="50" viewBox="0 0 50 50" fill="none" xmlns="http://www.w3.org/2000/svg">
<path fill-rule="evenodd" clip-rule="evenodd" d="M12.1035 4.16663H37.8971C42.2804 4.16663 45.8337 7.71992 45.8337 12.1031V37.8968C45.8337 42.28 42.2804 45.8333 37.8971 45.8333H12.1035C7.72029 45.8333 4.16699 42.28 4.16699 37.8968V12.1031C4.16699 7.71992 7.72029 4.16663 12.1035 4.16663ZM37.8971 42.8571C40.6367 42.8571 42.8575 40.6363 42.8575 37.8968V12.1031C42.8575 9.36363 40.6367 7.14282 37.8971 7.14282H12.1035C9.36399 7.14282 7.14318 9.36363 7.14318 12.1031V37.8968C7.14318 40.6363 9.36399 42.8571 12.1035 42.8571H37.8971Z" fill="white"/>
<path d="M35.913 18.5515H29.9606C29.1388 18.5515 28.4725 19.2178 28.4725 20.0396C28.4725 20.8615 29.1388 21.5277 29.9606 21.5277H31.8059L24.7424 28.5912L20.7741 24.623C19.7211 23.5736 18.0176 23.5736 16.9646 24.623L11.786 29.6428C11.2058 30.2238 11.2058 31.165 11.786 31.746C12.0636 32.027 12.4427 32.1844 12.8376 32.1825C13.233 32.1866 13.613 32.0289 13.8892 31.746L18.79 26.8452L22.7583 30.8134C23.8181 31.8651 25.5278 31.8651 26.5876 30.8134L34.3456 23.0555V25.992C34.3456 26.8139 35.0118 27.4801 35.8337 27.4801C36.6555 27.4801 37.3218 26.8139 37.3218 25.992V20.0396C37.3131 19.2517 36.6993 18.6033 35.913 18.5515Z" fill="white"/>
</svg>
